<?xml version="1.0" encoding="utf-8" standalone="no"?>
<!DOCTYPE svg PUBLIC "-//W3C//DTD SVG 1.1//EN"
  "http://www.w3.org/Graphics/SVG/1.1/DTD/svg11.dtd">
<svg xmlns:xlink="http://www.w3.org/1999/xlink" width="792pt" height="648pt" viewBox="0 0 792 648" xmlns="http://www.w3.org/2000/svg" version="1.1">
 <metadata>
  <rdf:RDF xmlns:dc="http://purl.org/dc/elements/1.1/" xmlns:cc="http://creativecommons.org/ns#" xmlns:rdf="http://www.w3.org/1999/02/22-rdf-syntax-ns#">
   <cc:Work>
    <dc:type rdf:resource="http://purl.org/dc/dcmitype/StillImage"/>
    <dc:date>2026-07-08T20:11:18.217585</dc:date>
    <dc:format>image/svg+xml</dc:format>
    <dc:creator>
     <cc:Agent>
      <dc:title>Matplotlib v3.5.1, https://matplotlib.org/</dc:title>
     </cc:Agent>
    </dc:creator>
   </cc:Work>
  </rdf:RDF>
 </metadata>
 <defs>
  <style type="text/css">*{stroke-linejoin: round; stroke-linecap: butt}</style>
 </defs>
 <g id="figure_1">
  <g id="patch_1">
   <path d="M 0 648 
L 792 648 
L 792 0 
L 0 0 
z
" style="fill: #ffffff"/>
  </g>
  <g id="axes_1">
   <g id="patch_2">
    <path d="M 52.85 118.408 
L 781.2 118.408 
L 781.2 26.68875 
L 52.85 26.68875 
z
" style="fill: #ffffff"/>
   </g>
   <g id="matplotlib.axis_1">
    <g id="xtick_1">
     <g id="line2d_1">
      <defs>
       <path id="m243464214b" d="M 0 0 
L 0 3.5 
" style="stroke: #000000; stroke-width: 0.8"/>
      </defs>
      <g>
       <use xlink:href="#m243464214b" x="85.956818" y="118.408" style="stroke: #000000; stroke-width: 0.8"/>
      </g>
     </g>
    </g>
    <g id="xtick_2">
     <g id="line2d_2">
      <g>
       <use xlink:href="#m243464214b" x="168.723864" y="118.408" style="stroke: #000000; stroke-width: 0.8"/>
      </g>
     </g>
    </g>
    <g id="xtick_3">
     <g id="line2d_3">
      <g>
       <use xlink:href="#m243464214b" x="251.490909" y="118.408" style="stroke: #000000; stroke-width: 0.8"/>
      </g>
     </g>
    </g>
    <g id="xtick_4">
     <g id="line2d_4">
      <g>
       <use xlink:href="#m243464214b" x="334.257955" y="118.408" style="stroke: #000000; stroke-width: 0.8"/>
      </g>
     </g>
    </g>
    <g id="xtick_5">
     <g id="line2d_5">
      <g>
       <use xlink:href="#m243464214b" x="417.025" y="118.408" style="stroke: #000000; stroke-width: 0.8"/>
      </g>
     </g>
    </g>
    <g id="xtick_6">
     <g id="line2d_6">
      <g>
       <use xlink:href="#m243464214b" x="499.792045" y="118.408" style="stroke: #000000; stroke-width: 0.8"/>
      </g>
     </g>
    </g>
    <g id="xtick_7">
     <g id="line2d_7">
      <g>
       <use xlink:href="#m243464214b" x="582.559091" y="118.408" style="stroke: #000000; stroke-width: 0.8"/>
      </g>
     </g>
    </g>
    <g id="xtick_8">
     <g id="line2d_8">
      <g>
       <use xlink:href="#m243464214b" x="665.326136" y="118.408" style="stroke: #000000; stroke-width: 0.8"/>
      </g>
     </g>
    </g>
    <g id="xtick_9">
     <g id="line2d_9">
      <g>
       <use xlink:href="#m243464214b" x="748.093182" y="118.408" style="stroke: #000000; stroke-width: 0.8"/>
      </g>
     </g>
    </g>
   </g>
   <g id="matplotlib.axis_2">
    <g id="ytick_1">
     <g id="line2d_10">
      <defs>
       <path id="m22b8a78b07" d="M 0 0 
L -3.5 0 
" style="stroke: #000000; stroke-width: 0.8"/>
      </defs>
      <g>
       <use xlink:href="#m22b8a78b07" x="52.85" y="91.231926" style="stroke: #000000; stroke-width: 0.8"/>
      </g>
     </g>
     <g id="text_1">
      <!-- −50 -->
      <g transform="translate(24.745313 95.031145)scale(0.1 -0.1)">
       <defs>
        <path id="DejaVuSans-2212" d="M 678 2272 
L 4684 2272 
L 4684 1741 
L 678 1741 
L 678 2272 
z
" transform="scale(0.015625)"/>
        <path id="DejaVuSans-35" d="M 691 4666 
L 3169 4666 
L 3169 4134 
L 1269 4134 
L 1269 2991 
Q 1406 3038 1543 3061 
Q 1681 3084 1819 3084 
Q 2600 3084 3056 2656 
Q 3513 2228 3513 1497 
Q 3513 744 3044 326 
Q 2575 -91 1722 -91 
Q 1428 -91 1123 -41 
Q 819 9 494 109 
L 494 744 
Q 775 591 1075 516 
Q 1375 441 1709 441 
Q 2250 441 2565 725 
Q 2881 1009 2881 1497 
Q 2881 1984 2565 2268 
Q 2250 2553 1709 2553 
Q 1456 2553 1204 2497 
Q 953 2441 691 2322 
L 691 4666 
z
" transform="scale(0.015625)"/>
        <path id="DejaVuSans-30" d="M 2034 4250 
Q 1547 4250 1301 3770 
Q 1056 3291 1056 2328 
Q 1056 1369 1301 889 
Q 1547 409 2034 409 
Q 2525 409 2770 889 
Q 3016 1369 3016 2328 
Q 3016 3291 2770 3770 
Q 2525 4250 2034 4250 
z
M 2034 4750 
Q 2819 4750 3233 4129 
Q 3647 3509 3647 2328 
Q 3647 1150 3233 529 
Q 2819 -91 2034 -91 
Q 1250 -91 836 529 
Q 422 1150 422 2328 
Q 422 3509 836 4129 
Q 1250 4750 2034 4750 
z
" transform="scale(0.015625)"/>
       </defs>
       <use xlink:href="#DejaVuSans-2212"/>
       <use xlink:href="#DejaVuSans-35" x="83.789062"/>
       <use xlink:href="#DejaVuSans-30" x="147.412109"/>
      </g>
     </g>
    </g>
    <g id="ytick_2">
     <g id="line2d_11">
      <g>
       <use xlink:href="#m22b8a78b07" x="52.85" y="57.261833" style="stroke: #000000; stroke-width: 0.8"/>
      </g>
     </g>
     <g id="text_2">
      <!-- 0 -->
      <g transform="translate(39.4875 61.061052)scale(0.1 -0.1)">
       <use xlink:href="#DejaVuSans-30"/>
      </g>
     </g>
    </g>
    <g id="text_3">
     <!-- mV -->
     <g transform="translate(18.665625 80.839)rotate(-90)scale(0.1 -0.1)">
      <defs>
       <path id="DejaVuSans-6d" d="M 3328 2828 
Q 3544 3216 3844 3400 
Q 4144 3584 4550 3584 
Q 5097 3584 5394 3201 
Q 5691 2819 5691 2113 
L 5691 0 
L 5113 0 
L 5113 2094 
Q 5113 2597 4934 2840 
Q 4756 3084 4391 3084 
Q 3944 3084 3684 2787 
Q 3425 2491 3425 1978 
L 3425 0 
L 2847 0 
L 2847 2094 
Q 2847 2600 2669 2842 
Q 2491 3084 2119 3084 
Q 1678 3084 1418 2786 
Q 1159 2488 1159 1978 
L 1159 0 
L 581 0 
L 581 3500 
L 1159 3500 
L 1159 2956 
Q 1356 3278 1631 3431 
Q 1906 3584 2284 3584 
Q 2666 3584 2933 3390 
Q 3200 3197 3328 2828 
z
" transform="scale(0.015625)"/>
       <path id="DejaVuSans-56" d="M 1831 0 
L 50 4666 
L 709 4666 
L 2188 738 
L 3669 4666 
L 4325 4666 
L 2547 0 
L 1831 0 
z
" transform="scale(0.015625)"/>
      </defs>
      <use xlink:href="#DejaVuSans-6d"/>
      <use xlink:href="#DejaVuSans-56" x="97.412109"/>
     </g>
    </g>
   </g>
   <g id="line2d_12">
    <path d="M 85.956818 98.025944 
L 86.308578 98.019954 
L 88.357062 98.306299 
L 93.73692 98.996132 
L 99.240929 99.464106 
L 105.800217 99.790273 
L 114.242456 99.975384 
L 127.071348 100.010056 
L 229.330033 99.828117 
L 343.962391 99.828597 
L 344.127925 13.743386 
L 344.252075 32.973815 
L 344.438301 33.528183 
L 344.583143 35.559976 
L 344.89352 44.00655 
L 345.141821 52.600071 
L 345.269854 -1 
M 345.312888 -1 
L 345.472889 50.829358 
L 345.741882 73.152092 
L 346.07295 84.954377 
L 346.362635 88.786138 
L 346.42471 89.231395 
L 346.590244 12.211624 
L 346.735087 51.562129 
L 347.00408 65.587195 
L 347.604141 83.751082 
L 347.914517 87.299651 
L 348.162818 88.808442 
L 348.328352 9.822614 
L 348.473195 46.949352 
L 348.721496 57.334896 
L 348.762879 58.457571 
L 348.890997 -1 
M 348.936918 -1 
L 349.093947 44.410868 
L 349.36294 64.231126 
L 349.7147 74.873648 
L 350.128536 81.183101 
L 350.500987 83.875631 
L 351.018281 85.866429 
L 351.742493 88.821176 
L 352.921923 93.648784 
L 353.646135 95.669429 
L 354.391038 97.118945 
L 355.198017 98.219357 
L 356.087763 99.05799 
L 357.080967 99.68526 
L 358.239706 100.150679 
L 359.708821 100.490959 
L 361.736614 100.715352 
L 365.005912 100.826789 
L 372.082494 100.799233 
L 386.48396 100.505593 
L 410.651937 100.024802 
L 431.881685 99.864033 
L 473.513509 99.825311 
L 748.093182 99.828605 
L 748.093182 99.828605 
" clip-path="url(#p87a9acc7fa)" style="fill: none; stroke: #1f77b4; stroke-width: 0.8; stroke-linecap: square"/>
   </g>
   <g id="line2d_13">
    <path d="M 85.956818 98.025944 
L 86.308578 98.019954 
L 88.357062 98.306299 
L 93.73692 98.996132 
L 99.240929 99.464106 
L 105.800217 99.790273 
L 114.242456 99.975384 
L 127.071348 100.010056 
L 229.330033 99.828117 
L 343.962391 99.828597 
L 344.127925 13.743385 
L 344.252075 32.973815 
L 344.438301 33.528183 
L 344.583143 35.559976 
L 344.89352 44.006551 
L 345.141821 52.600071 
L 345.269854 -1 
M 345.312888 -1 
L 345.472889 50.829358 
L 345.741882 73.152093 
L 346.07295 84.954377 
L 346.362635 88.786138 
L 346.42471 89.231395 
L 346.590244 12.211623 
L 346.735087 51.562129 
L 347.00408 65.587195 
L 347.604141 83.751082 
L 347.914517 87.299651 
L 348.162818 88.808442 
L 348.328352 9.822613 
L 348.473195 46.949351 
L 348.721496 57.334895 
L 348.762879 58.45757 
L 348.890997 -1 
M 348.936918 -1 
L 349.093947 44.410868 
L 349.36294 64.231126 
L 349.7147 74.873648 
L 350.128536 81.183101 
L 350.500987 83.875631 
L 351.018281 85.866429 
L 351.742493 88.821177 
L 352.921923 93.648785 
L 353.646135 95.669429 
L 354.391038 97.118945 
L 355.198017 98.219357 
L 356.087763 99.05799 
L 357.080967 99.68526 
L 358.239706 100.150679 
L 359.708821 100.49096 
L 361.736614 100.715352 
L 365.005912 100.826789 
L 372.082494 100.799233 
L 386.48396 100.505593 
L 410.651937 100.024802 
L 431.881685 99.864033 
L 473.513509 99.825311 
L 748.093182 99.828605 
L 748.093182 99.828605 
" clip-path="url(#p87a9acc7fa)" style="fill: none; stroke: #ff7f0e; stroke-width: 0.8; stroke-linecap: square"/>
   </g>
   <g id="line2d_14">
    <path d="M 334.257955 118.408 
L 334.257955 26.68875 
" clip-path="url(#p87a9acc7fa)" style="fill: none; stroke-dasharray: 3.7,1.6; stroke-dashoffset: 0; stroke: #000000"/>
   </g>
   <g id="patch_3">
    <path d="M 52.85 118.408 
L 52.85 26.68875 
" style="fill: none; stroke: #000000; stroke-width: 0.8; stroke-linejoin: miter; stroke-linecap: square"/>
   </g>
   <g id="patch_4">
    <path d="M 52.85 118.408 
L 781.2 118.408 
" style="fill: none; stroke: #000000; stroke-width: 0.8; stroke-linejoin: miter; stroke-linecap: square"/>
   </g>
   <g id="text_4">
    <!-- CA1_Pyr -->
    <g transform="translate(392.277812 20.68875)scale(0.12 -0.12)">
     <defs>
      <path id="DejaVuSans-43" d="M 4122 4306 
L 4122 3641 
Q 3803 3938 3442 4084 
Q 3081 4231 2675 4231 
Q 1875 4231 1450 3742 
Q 1025 3253 1025 2328 
Q 1025 1406 1450 917 
Q 1875 428 2675 428 
Q 3081 428 3442 575 
Q 3803 722 4122 1019 
L 4122 359 
Q 3791 134 3420 21 
Q 3050 -91 2638 -91 
Q 1578 -91 968 557 
Q 359 1206 359 2328 
Q 359 3453 968 4101 
Q 1578 4750 2638 4750 
Q 3056 4750 3426 4639 
Q 3797 4528 4122 4306 
z
" transform="scale(0.015625)"/>
      <path id="DejaVuSans-41" d="M 2188 4044 
L 1331 1722 
L 3047 1722 
L 2188 4044 
z
M 1831 4666 
L 2547 4666 
L 4325 0 
L 3669 0 
L 3244 1197 
L 1141 1197 
L 716 0 
L 50 0 
L 1831 4666 
z
" transform="scale(0.015625)"/>
      <path id="DejaVuSans-31" d="M 794 531 
L 1825 531 
L 1825 4091 
L 703 3866 
L 703 4441 
L 1819 4666 
L 2450 4666 
L 2450 531 
L 3481 531 
L 3481 0 
L 794 0 
L 794 531 
z
" transform="scale(0.015625)"/>
      <path id="DejaVuSans-5f" d="M 3263 -1063 
L 3263 -1509 
L -63 -1509 
L -63 -1063 
L 3263 -1063 
z
" transform="scale(0.015625)"/>
      <path id="DejaVuSans-50" d="M 1259 4147 
L 1259 2394 
L 2053 2394 
Q 2494 2394 2734 2622 
Q 2975 2850 2975 3272 
Q 2975 3691 2734 3919 
Q 2494 4147 2053 4147 
L 1259 4147 
z
M 628 4666 
L 2053 4666 
Q 2838 4666 3239 4311 
Q 3641 3956 3641 3272 
Q 3641 2581 3239 2228 
Q 2838 1875 2053 1875 
L 1259 1875 
L 1259 0 
L 628 0 
L 628 4666 
z
" transform="scale(0.015625)"/>
      <path id="DejaVuSans-79" d="M 2059 -325 
Q 1816 -950 1584 -1140 
Q 1353 -1331 966 -1331 
L 506 -1331 
L 506 -850 
L 844 -850 
Q 1081 -850 1212 -737 
Q 1344 -625 1503 -206 
L 1606 56 
L 191 3500 
L 800 3500 
L 1894 763 
L 2988 3500 
L 3597 3500 
L 2059 -325 
z
" transform="scale(0.015625)"/>
      <path id="DejaVuSans-72" d="M 2631 2963 
Q 2534 3019 2420 3045 
Q 2306 3072 2169 3072 
Q 1681 3072 1420 2755 
Q 1159 2438 1159 1844 
L 1159 0 
L 581 0 
L 581 3500 
L 1159 3500 
L 1159 2956 
Q 1341 3275 1631 3429 
Q 1922 3584 2338 3584 
Q 2397 3584 2469 3576 
Q 2541 3569 2628 3553 
L 2631 2963 
z
" transform="scale(0.015625)"/>
     </defs>
     <use xlink:href="#DejaVuSans-43"/>
     <use xlink:href="#DejaVuSans-41" x="69.824219"/>
     <use xlink:href="#DejaVuSans-31" x="138.232422"/>
     <use xlink:href="#DejaVuSans-5f" x="201.855469"/>
     <use xlink:href="#DejaVuSans-50" x="251.855469"/>
     <use xlink:href="#DejaVuSans-79" x="312.158203"/>
     <use xlink:href="#DejaVuSans-72" x="371.337891"/>
    </g>
   </g>
   <g id="legend_1">
    <g id="patch_5">
     <path d="M 677.28 57.01875 
L 775.6 57.01875 
Q 777.2 57.01875 777.2 55.41875 
L 777.2 32.28875 
Q 777.2 30.68875 775.6 30.68875 
L 677.28 30.68875 
Q 675.68 30.68875 675.68 32.28875 
L 675.68 55.41875 
Q 675.68 57.01875 677.28 57.01875 
z
" style="fill: #ffffff; opacity: 0.8; stroke: #cccccc; stroke-linejoin: miter"/>
    </g>
    <g id="line2d_15">
     <path d="M 678.88 37.1675 
L 686.88 37.1675 
L 694.88 37.1675 
" style="fill: none; stroke: #1f77b4; stroke-width: 0.8; stroke-linecap: square"/>
    </g>
    <g id="text_5">
     <!-- CA1_Pyr cell None -->
     <g transform="translate(701.28 39.9675)scale(0.08 -0.08)">
      <defs>
       <path id="DejaVuSans-20" transform="scale(0.015625)"/>
       <path id="DejaVuSans-63" d="M 3122 3366 
L 3122 2828 
Q 2878 2963 2633 3030 
Q 2388 3097 2138 3097 
Q 1578 3097 1268 2742 
Q 959 2388 959 1747 
Q 959 1106 1268 751 
Q 1578 397 2138 397 
Q 2388 397 2633 464 
Q 2878 531 3122 666 
L 3122 134 
Q 2881 22 2623 -34 
Q 2366 -91 2075 -91 
Q 1284 -91 818 406 
Q 353 903 353 1747 
Q 353 2603 823 3093 
Q 1294 3584 2113 3584 
Q 2378 3584 2631 3529 
Q 2884 3475 3122 3366 
z
" transform="scale(0.015625)"/>
       <path id="DejaVuSans-65" d="M 3597 1894 
L 3597 1613 
L 953 1613 
Q 991 1019 1311 708 
Q 1631 397 2203 397 
Q 2534 397 2845 478 
Q 3156 559 3463 722 
L 3463 178 
Q 3153 47 2828 -22 
Q 2503 -91 2169 -91 
Q 1331 -91 842 396 
Q 353 884 353 1716 
Q 353 2575 817 3079 
Q 1281 3584 2069 3584 
Q 2775 3584 3186 3129 
Q 3597 2675 3597 1894 
z
M 3022 2063 
Q 3016 2534 2758 2815 
Q 2500 3097 2075 3097 
Q 1594 3097 1305 2825 
Q 1016 2553 972 2059 
L 3022 2063 
z
" transform="scale(0.015625)"/>
       <path id="DejaVuSans-6c" d="M 603 4863 
L 1178 4863 
L 1178 0 
L 603 0 
L 603 4863 
z
" transform="scale(0.015625)"/>
       <path id="DejaVuSans-4e" d="M 628 4666 
L 1478 4666 
L 3547 763 
L 3547 4666 
L 4159 4666 
L 4159 0 
L 3309 0 
L 1241 3903 
L 1241 0 
L 628 0 
L 628 4666 
z
" transform="scale(0.015625)"/>
       <path id="DejaVuSans-6f" d="M 1959 3097 
Q 1497 3097 1228 2736 
Q 959 2375 959 1747 
Q 959 1119 1226 758 
Q 1494 397 1959 397 
Q 2419 397 2687 759 
Q 2956 1122 2956 1747 
Q 2956 2369 2687 2733 
Q 2419 3097 1959 3097 
z
M 1959 3584 
Q 2709 3584 3137 3096 
Q 3566 2609 3566 1747 
Q 3566 888 3137 398 
Q 2709 -91 1959 -91 
Q 1206 -91 779 398 
Q 353 888 353 1747 
Q 353 2609 779 3096 
Q 1206 3584 1959 3584 
z
" transform="scale(0.015625)"/>
       <path id="DejaVuSans-6e" d="M 3513 2113 
L 3513 0 
L 2938 0 
L 2938 2094 
Q 2938 2591 2744 2837 
Q 2550 3084 2163 3084 
Q 1697 3084 1428 2787 
Q 1159 2491 1159 1978 
L 1159 0 
L 581 0 
L 581 3500 
L 1159 3500 
L 1159 2956 
Q 1366 3272 1645 3428 
Q 1925 3584 2291 3584 
Q 2894 3584 3203 3211 
Q 3513 2838 3513 2113 
z
" transform="scale(0.015625)"/>
      </defs>
      <use xlink:href="#DejaVuSans-43"/>
      <use xlink:href="#DejaVuSans-41" x="69.824219"/>
      <use xlink:href="#DejaVuSans-31" x="138.232422"/>
      <use xlink:href="#DejaVuSans-5f" x="201.855469"/>
      <use xlink:href="#DejaVuSans-50" x="251.855469"/>
      <use xlink:href="#DejaVuSans-79" x="312.158203"/>
      <use xlink:href="#DejaVuSans-72" x="371.337891"/>
      <use xlink:href="#DejaVuSans-20" x="412.451172"/>
      <use xlink:href="#DejaVuSans-63" x="444.238281"/>
      <use xlink:href="#DejaVuSans-65" x="499.21875"/>
      <use xlink:href="#DejaVuSans-6c" x="560.742188"/>
      <use xlink:href="#DejaVuSans-6c" x="588.525391"/>
      <use xlink:href="#DejaVuSans-20" x="616.308594"/>
      <use xlink:href="#DejaVuSans-4e" x="648.095703"/>
      <use xlink:href="#DejaVuSans-6f" x="722.900391"/>
      <use xlink:href="#DejaVuSans-6e" x="784.082031"/>
      <use xlink:href="#DejaVuSans-65" x="847.460938"/>
     </g>
    </g>
    <g id="line2d_16">
     <path d="M 678.88 49.1325 
L 686.88 49.1325 
L 694.88 49.1325 
" style="fill: none; stroke: #ff7f0e; stroke-width: 0.8; stroke-linecap: square"/>
    </g>
    <g id="text_6">
     <!-- CA1_Pyr cell None -->
     <g transform="translate(701.28 51.9325)scale(0.08 -0.08)">
      <use xlink:href="#DejaVuSans-43"/>
      <use xlink:href="#DejaVuSans-41" x="69.824219"/>
      <use xlink:href="#DejaVuSans-31" x="138.232422"/>
      <use xlink:href="#DejaVuSans-5f" x="201.855469"/>
      <use xlink:href="#DejaVuSans-50" x="251.855469"/>
      <use xlink:href="#DejaVuSans-79" x="312.158203"/>
      <use xlink:href="#DejaVuSans-72" x="371.337891"/>
      <use xlink:href="#DejaVuSans-20" x="412.451172"/>
      <use xlink:href="#DejaVuSans-63" x="444.238281"/>
      <use xlink:href="#DejaVuSans-65" x="499.21875"/>
      <use xlink:href="#DejaVuSans-6c" x="560.742188"/>
      <use xlink:href="#DejaVuSans-6c" x="588.525391"/>
      <use xlink:href="#DejaVuSans-20" x="616.308594"/>
      <use xlink:href="#DejaVuSans-4e" x="648.095703"/>
      <use xlink:href="#DejaVuSans-6f" x="722.900391"/>
      <use xlink:href="#DejaVuSans-6e" x="784.082031"/>
      <use xlink:href="#DejaVuSans-65" x="847.460938"/>
     </g>
    </g>
   </g>
  </g>
  <g id="axes_2">
   <g id="patch_6">
    <path d="M 52.85 240.316 
L 781.2 240.316 
L 781.2 148.59675 
L 52.85 148.59675 
z
" style="fill: #ffffff"/>
   </g>
   <g id="matplotlib.axis_3">
    <g id="xtick_10">
     <g id="line2d_17">
      <g>
       <use xlink:href="#m243464214b" x="85.956818" y="240.316" style="stroke: #000000; stroke-width: 0.8"/>
      </g>
     </g>
    </g>
    <g id="xtick_11">
     <g id="line2d_18">
      <g>
       <use xlink:href="#m243464214b" x="168.723864" y="240.316" style="stroke: #000000; stroke-width: 0.8"/>
      </g>
     </g>
    </g>
    <g id="xtick_12">
     <g id="line2d_19">
      <g>
       <use xlink:href="#m243464214b" x="251.490909" y="240.316" style="stroke: #000000; stroke-width: 0.8"/>
      </g>
     </g>
    </g>
    <g id="xtick_13">
     <g id="line2d_20">
      <g>
       <use xlink:href="#m243464214b" x="334.257955" y="240.316" style="stroke: #000000; stroke-width: 0.8"/>
      </g>
     </g>
    </g>
    <g id="xtick_14">
     <g id="line2d_21">
      <g>
       <use xlink:href="#m243464214b" x="417.025" y="240.316" style="stroke: #000000; stroke-width: 0.8"/>
      </g>
     </g>
    </g>
    <g id="xtick_15">
     <g id="line2d_22">
      <g>
       <use xlink:href="#m243464214b" x="499.792045" y="240.316" style="stroke: #000000; stroke-width: 0.8"/>
      </g>
     </g>
    </g>
    <g id="xtick_16">
     <g id="line2d_23">
      <g>
       <use xlink:href="#m243464214b" x="582.559091" y="240.316" style="stroke: #000000; stroke-width: 0.8"/>
      </g>
     </g>
    </g>
    <g id="xtick_17">
     <g id="line2d_24">
      <g>
       <use xlink:href="#m243464214b" x="665.326136" y="240.316" style="stroke: #000000; stroke-width: 0.8"/>
      </g>
     </g>
    </g>
    <g id="xtick_18">
     <g id="line2d_25">
      <g>
       <use xlink:href="#m243464214b" x="748.093182" y="240.316" style="stroke: #000000; stroke-width: 0.8"/>
      </g>
     </g>
    </g>
   </g>
   <g id="matplotlib.axis_4">
    <g id="ytick_3">
     <g id="line2d_26">
      <g>
       <use xlink:href="#m22b8a78b07" x="52.85" y="213.139926" style="stroke: #000000; stroke-width: 0.8"/>
      </g>
     </g>
     <g id="text_7">
      <!-- −50 -->
      <g transform="translate(24.745313 216.939145)scale(0.1 -0.1)">
       <use xlink:href="#DejaVuSans-2212"/>
       <use xlink:href="#DejaVuSans-35" x="83.789062"/>
       <use xlink:href="#DejaVuSans-30" x="147.412109"/>
      </g>
     </g>
    </g>
    <g id="ytick_4">
     <g id="line2d_27">
      <g>
       <use xlink:href="#m22b8a78b07" x="52.85" y="179.169833" style="stroke: #000000; stroke-width: 0.8"/>
      </g>
     </g>
     <g id="text_8">
      <!-- 0 -->
      <g transform="translate(39.4875 182.969052)scale(0.1 -0.1)">
       <use xlink:href="#DejaVuSans-30"/>
      </g>
     </g>
    </g>
    <g id="text_9">
     <!-- mV -->
     <g transform="translate(18.665625 202.747)rotate(-90)scale(0.1 -0.1)">
      <use xlink:href="#DejaVuSans-6d"/>
      <use xlink:href="#DejaVuSans-56" x="97.412109"/>
     </g>
    </g>
   </g>
   <g id="line2d_28">
    <path d="M 85.956818 223.330954 
L 86.432729 223.240366 
L 90.033095 222.842869 
L 99.096087 222.064321 
L 111.428376 221.231829 
L 126.636821 220.436725 
L 147.576884 219.583086 
L 180.269866 218.257097 
L 187.884435 217.722291 
L 191.650335 217.259401 
L 193.305676 216.861383 
L 193.82297 216.552619 
L 193.967812 216.262665 
L 194.05058 215.334109 
L 194.133347 212.117415 
L 194.402339 180.700507 
L 194.505798 162.621258 
L 194.547182 164.311754 
L 195.105859 197.304364 
L 195.726612 222.144828 
L 196.05768 225.271931 
L 196.430132 226.891403 
L 196.843967 227.765954 
L 197.278494 228.186867 
L 197.754405 228.335564 
L 198.354466 228.269699 
L 199.285595 227.911053 
L 203.030804 226.290125 
L 205.224131 225.681979 
L 208.224436 225.098279 
L 213.004233 224.420306 
L 221.19817 223.503671 
L 232.12342 222.506847 
L 244.497094 221.605432 
L 258.877868 220.788085 
L 277.003851 219.992674 
L 327.408982 217.916903 
L 332.43708 217.43438 
L 334.816632 217.010129 
L 335.685686 216.66737 
L 335.933987 216.360432 
L 336.016754 215.873898 
L 336.120213 212.827798 
L 336.389206 183.871226 
L 336.492665 162.677072 
L 336.55474 165.047077 
L 337.030651 193.973685 
L 337.775554 222.832038 
L 338.106622 225.577642 
L 338.479074 227.040688 
L 338.892909 227.837539 
L 339.327436 228.216205 
L 339.803347 228.339036 
L 340.424099 228.250008 
L 341.417304 227.848078 
L 344.727986 226.393161 
L 346.859237 225.771132 
L 347.355839 225.653903 
L 347.583449 162.448052 
L 347.604141 162.996016 
L 348.100743 180.575064 
L 348.53527 186.642745 
L 349.052564 190.943365 
L 349.611241 193.707309 
L 349.797467 194.374407 
L 350.004385 184.295089 
L 350.169919 183.542371 
L 350.273378 183.725094 
L 350.64583 185.035584 
L 351.535575 188.700849 
L 351.742493 183.751969 
L 351.887335 183.459303 
L 351.908027 183.465539 
L 352.052869 183.663611 
L 352.404629 184.645719 
L 353.397834 188.288848 
L 354.722107 193.90397 
L 355.673928 197.033161 
L 355.736003 197.105767 
L 355.756695 197.070818 
L 355.880845 196.600846 
L 355.94292 196.684643 
L 356.17053 197.651044 
L 357.060276 201.452241 
L 357.391344 202.032735 
L 357.681028 202.146589 
L 358.384548 202.035166 
L 358.467315 201.790187 
L 358.839767 199.320858 
L 358.963918 199.357167 
L 359.150143 199.790745 
L 359.439828 201.167041 
L 360.060581 204.410608 
L 360.433033 205.325034 
L 360.63995 205.412467 
L 360.805484 205.199555 
L 361.033094 204.448376 
L 361.21932 203.263088 
L 361.798689 195.773932 
L 361.964223 195.266474 
L 361.984915 195.281175 
L 362.088374 195.601421 
L 362.315983 197.414609 
L 362.895352 201.997377 
L 363.350571 203.9901 
L 363.723023 204.790925 
L 363.971324 204.903776 
L 364.15755 204.726584 
L 364.323084 204.200685 
L 364.447234 202.280226 
L 364.798994 198.300904 
L 365.109371 196.553612 
L 365.192138 196.52833 
L 365.21283 196.556433 
L 365.33698 197.005176 
L 366.619869 203.572736 
L 366.950937 204.028655 
L 367.178547 204.036235 
L 367.344081 203.822694 
L 367.44754 203.283877 
L 367.882067 198.418658 
L 368.15106 197.390882 
L 368.254518 197.425301 
L 368.399361 197.915142 
L 369.537408 203.346579 
L 369.868476 203.812521 
L 370.116777 203.845298 
L 370.323695 203.630625 
L 370.447845 203.216914 
L 370.613379 200.780605 
L 370.944447 197.905963 
L 371.172057 197.229241 
L 371.275516 197.327328 
L 371.44105 198.020861 
L 372.372179 203.069578 
L 372.765322 203.922065 
L 373.034315 204.096483 
L 373.241233 203.998621 
L 373.427459 203.667074 
L 373.510226 203.207385 
L 374.02752 197.607731 
L 374.255129 197.003784 
L 374.358588 197.1707 
L 374.544814 198.13905 
L 375.269026 202.485791 
L 375.703553 203.826564 
L 376.034621 204.265773 
L 376.26223 204.270835 
L 376.469148 204.018935 
L 376.593298 203.533498 
L 377.296818 196.947919 
L 377.379585 196.89536 
L 377.420969 196.940728 
L 377.545119 197.363569 
L 377.917571 199.912268 
L 378.455557 202.778501 
L 378.890084 204.052075 
L 379.221152 204.457807 
L 379.448761 204.431913 
L 379.634987 204.164875 
L 379.738446 203.723879 
L 380.483349 196.78728 
L 380.566116 196.790188 
L 380.586808 196.822625 
L 380.731651 197.395554 
L 381.890389 203.74489 
L 382.283533 204.549845 
L 382.552526 204.697234 
L 382.738751 204.566023 
L 382.904286 204.158135 
L 382.987053 203.259828 
L 383.338812 198.718201 
L 383.669881 196.64332 
L 383.752648 196.562186 
L 383.794031 196.602622 
L 383.918182 197.045492 
L 384.332017 199.98494 
L 384.870003 202.950938 
L 385.345913 204.459114 
L 385.697673 204.961994 
L 385.904591 204.971375 
L 386.090817 204.723952 
L 386.214967 204.168812 
L 386.918487 196.466576 
L 387.042638 196.233999 
L 387.084021 196.274857 
L 387.208172 196.746914 
L 387.663391 200.110123 
L 388.222068 203.232408 
L 388.71867 204.849818 
L 389.07043 205.399621 
L 389.277348 205.430423 
L 389.442882 205.22188 
L 389.567033 204.753031 
L 389.691183 202.729774 
L 390.084327 197.762242 
L 390.394703 195.645836 
L 390.456778 195.625484 
L 390.47747 195.654066 
L 390.601621 196.170946 
L 391.077531 199.990909 
L 391.636209 203.385039 
L 392.174195 205.388207 
L 392.608722 206.292086 
L 392.857023 206.433239 
L 393.001865 206.293133 
L 393.146707 205.784385 
L 393.250166 204.164442 
L 393.684693 197.236193 
L 394.015761 193.692644 
L 394.057145 193.647815 
L 394.098528 193.708623 
L 394.222679 194.439812 
L 395.588335 205.654923 
L 397.533361 215.184191 
L 398.216189 216.821921 
L 399.002476 218.137778 
L 399.954297 219.296201 
L 401.154419 220.397722 
L 402.706301 221.5105 
L 404.69271 222.652218 
L 407.113646 223.780026 
L 409.989801 224.868333 
L 413.38325 225.908799 
L 417.314685 226.87743 
L 421.804797 227.750526 
L 426.89497 228.508914 
L 432.688663 229.142446 
L 439.392794 229.646322 
L 447.317739 230.012082 
L 456.960099 230.22617 
L 469.251006 230.265981 
L 486.21825 230.083276 
L 513.841751 229.536598 
L 589.263222 227.741318 
L 703.295518 225.097728 
L 748.093182 224.192271 
L 748.093182 224.192271 
" clip-path="url(#p632951adaa)" style="fill: none; stroke: #1f77b4; stroke-width: 0.8; stroke-linecap: square"/>
   </g>
   <g id="line2d_29">
    <path d="M 85.956818 223.330954 
L 86.432729 223.240366 
L 90.033095 222.842869 
L 99.096087 222.064321 
L 111.428376 221.231829 
L 126.636821 220.436725 
L 147.576884 219.583087 
L 180.269866 218.257097 
L 187.884435 217.722291 
L 191.650335 217.259401 
L 193.305676 216.861385 
L 193.82297 216.552623 
L 193.967812 216.262679 
L 194.05058 215.33418 
L 194.133347 212.117677 
L 194.402339 180.701593 
L 194.505798 162.621235 
L 194.547182 164.311532 
L 195.105859 197.304202 
L 195.726612 222.14478 
L 196.05768 225.27191 
L 196.430132 226.891393 
L 196.843967 227.765949 
L 197.278494 228.186865 
L 197.754405 228.335564 
L 198.354466 228.2697 
L 199.285595 227.911055 
L 203.030804 226.290126 
L 205.224131 225.68198 
L 208.224436 225.098279 
L 213.004233 224.420306 
L 221.19817 223.503671 
L 232.12342 222.506847 
L 244.497094 221.605433 
L 258.877868 220.788085 
L 277.003851 219.992674 
L 327.408982 217.916904 
L 332.43708 217.434381 
L 334.816632 217.010131 
L 335.685686 216.667375 
L 335.933987 216.36045 
L 336.016754 215.873989 
L 336.120213 212.828235 
L 336.389206 183.873305 
L 336.492665 162.677194 
L 336.55474 165.046568 
L 337.030651 193.973372 
L 337.775554 222.831953 
L 338.106622 225.577603 
L 338.479074 227.040669 
L 338.892909 227.83753 
L 339.327436 228.216201 
L 339.803347 228.339036 
L 340.424099 228.25001 
L 341.417304 227.848082 
L 344.727986 226.393163 
L 346.859237 225.771134 
L 349.694009 225.192688 
L 354.080662 224.547898 
L 361.653847 223.682714 
L 372.310104 222.692371 
L 384.476859 221.788221 
L 398.485182 220.97655 
L 415.680036 220.213019 
L 441.11021 219.331673 
L 468.650945 218.330588 
L 477.486327 217.798811 
L 481.893672 217.334722 
L 483.900773 216.929799 
L 484.583601 216.609215 
L 484.769827 216.339715 
L 484.852594 215.790016 
L 484.956053 212.450295 
L 485.225045 182.19983 
L 485.328504 162.635844 
L 485.369888 164.028581 
L 486.032024 202.360619 
L 486.466551 220.712776 
L 486.776928 224.515165 
L 487.149379 226.533887 
L 487.542523 227.558198 
L 487.956358 228.080651 
L 488.411577 228.308557 
L 488.949562 228.318222 
L 489.715158 228.086501 
L 491.639491 227.177138 
L 493.646592 226.368202 
L 495.798536 225.753766 
L 498.67469 225.181416 
L 503.164803 224.539144 
L 510.903521 223.679984 
L 521.704621 222.70766 
L 534.036911 221.824335 
L 548.231459 221.036978 
L 565.550463 220.308652 
L 589.677057 219.535568 
L 628.887945 218.290185 
L 637.826786 217.779765 
L 642.296206 217.326377 
L 644.34469 216.924183 
L 645.04821 216.596517 
L 645.234436 216.315698 
L 645.317203 215.691427 
L 645.420662 212.012828 
L 645.689655 180.425238 
L 645.793114 162.67144 
L 645.834497 164.403531 
L 646.393175 197.36675 
L 647.013928 222.154149 
L 647.344996 225.273916 
L 647.717447 226.890581 
L 648.131283 227.763782 
L 648.56581 228.184246 
L 649.04172 228.333177 
L 649.641781 228.268309 
L 650.572911 227.912122 
L 654.297428 226.312279 
L 656.490754 225.712417 
L 659.449676 225.149851 
L 664.146706 224.507302 
L 672.257876 223.644843 
L 683.327969 222.694104 
L 695.929251 221.838803 
L 710.454868 221.081948 
L 728.146324 220.391916 
L 748.093182 219.800749 
L 748.093182 219.800749 
" clip-path="url(#p632951adaa)" style="fill: none; stroke: #ff7f0e; stroke-width: 0.8; stroke-linecap: square"/>
   </g>
   <g id="line2d_30">
    <path d="M 334.257955 240.316 
L 334.257955 148.59675 
" clip-path="url(#p632951adaa)" style="fill: none; stroke-dasharray: 3.7,1.6; stroke-dashoffset: 0; stroke: #000000"/>
   </g>
   <g id="patch_7">
    <path d="M 52.85 240.316 
L 52.85 148.59675 
" style="fill: none; stroke: #000000; stroke-width: 0.8; stroke-linejoin: miter; stroke-linecap: square"/>
   </g>
   <g id="patch_8">
    <path d="M 52.85 240.316 
L 781.2 240.316 
" style="fill: none; stroke: #000000; stroke-width: 0.8; stroke-linejoin: miter; stroke-linecap: square"/>
   </g>
   <g id="text_10">
    <!-- Interneurons_L5 -->
    <g transform="translate(368.658437 142.59675)scale(0.12 -0.12)">
     <defs>
      <path id="DejaVuSans-49" d="M 628 4666 
L 1259 4666 
L 1259 0 
L 628 0 
L 628 4666 
z
" transform="scale(0.015625)"/>
      <path id="DejaVuSans-74" d="M 1172 4494 
L 1172 3500 
L 2356 3500 
L 2356 3053 
L 1172 3053 
L 1172 1153 
Q 1172 725 1289 603 
Q 1406 481 1766 481 
L 2356 481 
L 2356 0 
L 1766 0 
Q 1100 0 847 248 
Q 594 497 594 1153 
L 594 3053 
L 172 3053 
L 172 3500 
L 594 3500 
L 594 4494 
L 1172 4494 
z
" transform="scale(0.015625)"/>
      <path id="DejaVuSans-75" d="M 544 1381 
L 544 3500 
L 1119 3500 
L 1119 1403 
Q 1119 906 1312 657 
Q 1506 409 1894 409 
Q 2359 409 2629 706 
Q 2900 1003 2900 1516 
L 2900 3500 
L 3475 3500 
L 3475 0 
L 2900 0 
L 2900 538 
Q 2691 219 2414 64 
Q 2138 -91 1772 -91 
Q 1169 -91 856 284 
Q 544 659 544 1381 
z
M 1991 3584 
L 1991 3584 
z
" transform="scale(0.015625)"/>
      <path id="DejaVuSans-73" d="M 2834 3397 
L 2834 2853 
Q 2591 2978 2328 3040 
Q 2066 3103 1784 3103 
Q 1356 3103 1142 2972 
Q 928 2841 928 2578 
Q 928 2378 1081 2264 
Q 1234 2150 1697 2047 
L 1894 2003 
Q 2506 1872 2764 1633 
Q 3022 1394 3022 966 
Q 3022 478 2636 193 
Q 2250 -91 1575 -91 
Q 1294 -91 989 -36 
Q 684 19 347 128 
L 347 722 
Q 666 556 975 473 
Q 1284 391 1588 391 
Q 1994 391 2212 530 
Q 2431 669 2431 922 
Q 2431 1156 2273 1281 
Q 2116 1406 1581 1522 
L 1381 1569 
Q 847 1681 609 1914 
Q 372 2147 372 2553 
Q 372 3047 722 3315 
Q 1072 3584 1716 3584 
Q 2034 3584 2315 3537 
Q 2597 3491 2834 3397 
z
" transform="scale(0.015625)"/>
      <path id="DejaVuSans-4c" d="M 628 4666 
L 1259 4666 
L 1259 531 
L 3531 531 
L 3531 0 
L 628 0 
L 628 4666 
z
" transform="scale(0.015625)"/>
     </defs>
     <use xlink:href="#DejaVuSans-49"/>
     <use xlink:href="#DejaVuSans-6e" x="29.492188"/>
     <use xlink:href="#DejaVuSans-74" x="92.871094"/>
     <use xlink:href="#DejaVuSans-65" x="132.080078"/>
     <use xlink:href="#DejaVuSans-72" x="193.603516"/>
     <use xlink:href="#DejaVuSans-6e" x="232.966797"/>
     <use xlink:href="#DejaVuSans-65" x="296.345703"/>
     <use xlink:href="#DejaVuSans-75" x="357.869141"/>
     <use xlink:href="#DejaVuSans-72" x="421.248047"/>
     <use xlink:href="#DejaVuSans-6f" x="460.111328"/>
     <use xlink:href="#DejaVuSans-6e" x="521.292969"/>
     <use xlink:href="#DejaVuSans-73" x="584.671875"/>
     <use xlink:href="#DejaVuSans-5f" x="636.771484"/>
     <use xlink:href="#DejaVuSans-4c" x="686.771484"/>
     <use xlink:href="#DejaVuSans-35" x="742.484375"/>
    </g>
   </g>
   <g id="legend_2">
    <g id="patch_9">
     <path d="M 645.7875 178.92675 
L 775.6 178.92675 
Q 777.2 178.92675 777.2 177.32675 
L 777.2 154.19675 
Q 777.2 152.59675 775.6 152.59675 
L 645.7875 152.59675 
Q 644.1875 152.59675 644.1875 154.19675 
L 644.1875 177.32675 
Q 644.1875 178.92675 645.7875 178.92675 
z
" style="fill: #ffffff; opacity: 0.8; stroke: #cccccc; stroke-linejoin: miter"/>
    </g>
    <g id="line2d_31">
     <path d="M 647.3875 159.0755 
L 655.3875 159.0755 
L 663.3875 159.0755 
" style="fill: none; stroke: #1f77b4; stroke-width: 0.8; stroke-linecap: square"/>
    </g>
    <g id="text_11">
     <!-- Interneurons_L5 cell None -->
     <g transform="translate(669.7875 161.8755)scale(0.08 -0.08)">
      <use xlink:href="#DejaVuSans-49"/>
      <use xlink:href="#DejaVuSans-6e" x="29.492188"/>
      <use xlink:href="#DejaVuSans-74" x="92.871094"/>
      <use xlink:href="#DejaVuSans-65" x="132.080078"/>
      <use xlink:href="#DejaVuSans-72" x="193.603516"/>
      <use xlink:href="#DejaVuSans-6e" x="232.966797"/>
      <use xlink:href="#DejaVuSans-65" x="296.345703"/>
      <use xlink:href="#DejaVuSans-75" x="357.869141"/>
      <use xlink:href="#DejaVuSans-72" x="421.248047"/>
      <use xlink:href="#DejaVuSans-6f" x="460.111328"/>
      <use xlink:href="#DejaVuSans-6e" x="521.292969"/>
      <use xlink:href="#DejaVuSans-73" x="584.671875"/>
      <use xlink:href="#DejaVuSans-5f" x="636.771484"/>
      <use xlink:href="#DejaVuSans-4c" x="686.771484"/>
      <use xlink:href="#DejaVuSans-35" x="742.484375"/>
      <use xlink:href="#DejaVuSans-20" x="806.107422"/>
      <use xlink:href="#DejaVuSans-63" x="837.894531"/>
      <use xlink:href="#DejaVuSans-65" x="892.875"/>
      <use xlink:href="#DejaVuSans-6c" x="954.398438"/>
      <use xlink:href="#DejaVuSans-6c" x="982.181641"/>
      <use xlink:href="#DejaVuSans-20" x="1009.964844"/>
      <use xlink:href="#DejaVuSans-4e" x="1041.751953"/>
      <use xlink:href="#DejaVuSans-6f" x="1116.556641"/>
      <use xlink:href="#DejaVuSans-6e" x="1177.738281"/>
      <use xlink:href="#DejaVuSans-65" x="1241.117188"/>
     </g>
    </g>
    <g id="line2d_32">
     <path d="M 647.3875 171.0405 
L 655.3875 171.0405 
L 663.3875 171.0405 
" style="fill: none; stroke: #ff7f0e; stroke-width: 0.8; stroke-linecap: square"/>
    </g>
    <g id="text_12">
     <!-- Interneurons_L5 cell None -->
     <g transform="translate(669.7875 173.8405)scale(0.08 -0.08)">
      <use xlink:href="#DejaVuSans-49"/>
      <use xlink:href="#DejaVuSans-6e" x="29.492188"/>
      <use xlink:href="#DejaVuSans-74" x="92.871094"/>
      <use xlink:href="#DejaVuSans-65" x="132.080078"/>
      <use xlink:href="#DejaVuSans-72" x="193.603516"/>
      <use xlink:href="#DejaVuSans-6e" x="232.966797"/>
      <use xlink:href="#DejaVuSans-65" x="296.345703"/>
      <use xlink:href="#DejaVuSans-75" x="357.869141"/>
      <use xlink:href="#DejaVuSans-72" x="421.248047"/>
      <use xlink:href="#DejaVuSans-6f" x="460.111328"/>
      <use xlink:href="#DejaVuSans-6e" x="521.292969"/>
      <use xlink:href="#DejaVuSans-73" x="584.671875"/>
      <use xlink:href="#DejaVuSans-5f" x="636.771484"/>
      <use xlink:href="#DejaVuSans-4c" x="686.771484"/>
      <use xlink:href="#DejaVuSans-35" x="742.484375"/>
      <use xlink:href="#DejaVuSans-20" x="806.107422"/>
      <use xlink:href="#DejaVuSans-63" x="837.894531"/>
      <use xlink:href="#DejaVuSans-65" x="892.875"/>
      <use xlink:href="#DejaVuSans-6c" x="954.398438"/>
      <use xlink:href="#DejaVuSans-6c" x="982.181641"/>
      <use xlink:href="#DejaVuSans-20" x="1009.964844"/>
      <use xlink:href="#DejaVuSans-4e" x="1041.751953"/>
      <use xlink:href="#DejaVuSans-6f" x="1116.556641"/>
      <use xlink:href="#DejaVuSans-6e" x="1177.738281"/>
      <use xlink:href="#DejaVuSans-65" x="1241.117188"/>
     </g>
    </g>
   </g>
  </g>
  <g id="axes_3">
   <g id="patch_10">
    <path d="M 52.85 362.224 
L 781.2 362.224 
L 781.2 270.50475 
L 52.85 270.50475 
z
" style="fill: #ffffff"/>
   </g>
   <g id="matplotlib.axis_5">
    <g id="xtick_19">
     <g id="line2d_33">
      <g>
       <use xlink:href="#m243464214b" x="85.956818" y="362.224" style="stroke: #000000; stroke-width: 0.8"/>
      </g>
     </g>
    </g>
    <g id="xtick_20">
     <g id="line2d_34">
      <g>
       <use xlink:href="#m243464214b" x="168.723864" y="362.224" style="stroke: #000000; stroke-width: 0.8"/>
      </g>
     </g>
    </g>
    <g id="xtick_21">
     <g id="line2d_35">
      <g>
       <use xlink:href="#m243464214b" x="251.490909" y="362.224" style="stroke: #000000; stroke-width: 0.8"/>
      </g>
     </g>
    </g>
    <g id="xtick_22">
     <g id="line2d_36">
      <g>
       <use xlink:href="#m243464214b" x="334.257955" y="362.224" style="stroke: #000000; stroke-width: 0.8"/>
      </g>
     </g>
    </g>
    <g id="xtick_23">
     <g id="line2d_37">
      <g>
       <use xlink:href="#m243464214b" x="417.025" y="362.224" style="stroke: #000000; stroke-width: 0.8"/>
      </g>
     </g>
    </g>
    <g id="xtick_24">
     <g id="line2d_38">
      <g>
       <use xlink:href="#m243464214b" x="499.792045" y="362.224" style="stroke: #000000; stroke-width: 0.8"/>
      </g>
     </g>
    </g>
    <g id="xtick_25">
     <g id="line2d_39">
      <g>
       <use xlink:href="#m243464214b" x="582.559091" y="362.224" style="stroke: #000000; stroke-width: 0.8"/>
      </g>
     </g>
    </g>
    <g id="xtick_26">
     <g id="line2d_40">
      <g>
       <use xlink:href="#m243464214b" x="665.326136" y="362.224" style="stroke: #000000; stroke-width: 0.8"/>
      </g>
     </g>
    </g>
    <g id="xtick_27">
     <g id="line2d_41">
      <g>
       <use xlink:href="#m243464214b" x="748.093182" y="362.224" style="stroke: #000000; stroke-width: 0.8"/>
      </g>
     </g>
    </g>
   </g>
   <g id="matplotlib.axis_6">
    <g id="ytick_5">
     <g id="line2d_42">
      <g>
       <use xlink:href="#m22b8a78b07" x="52.85" y="335.047926" style="stroke: #000000; stroke-width: 0.8"/>
      </g>
     </g>
     <g id="text_13">
      <!-- −50 -->
      <g transform="translate(24.745313 338.847145)scale(0.1 -0.1)">
       <use xlink:href="#DejaVuSans-2212"/>
       <use xlink:href="#DejaVuSans-35" x="83.789062"/>
       <use xlink:href="#DejaVuSans-30" x="147.412109"/>
      </g>
     </g>
    </g>
    <g id="ytick_6">
     <g id="line2d_43">
      <g>
       <use xlink:href="#m22b8a78b07" x="52.85" y="301.077833" style="stroke: #000000; stroke-width: 0.8"/>
      </g>
     </g>
     <g id="text_14">
      <!-- 0 -->
      <g transform="translate(39.4875 304.877052)scale(0.1 -0.1)">
       <use xlink:href="#DejaVuSans-30"/>
      </g>
     </g>
    </g>
    <g id="text_15">
     <!-- mV -->
     <g transform="translate(18.665625 324.655)rotate(-90)scale(0.1 -0.1)">
      <use xlink:href="#DejaVuSans-6d"/>
      <use xlink:href="#DejaVuSans-56" x="97.412109"/>
     </g>
    </g>
   </g>
   <g id="line2d_44">
    <path d="M 85.956818 345.238954 
L 86.287886 345.142698 
L 88.377754 344.897467 
L 97.626972 344.064529 
L 110.311021 343.138115 
L 125.271165 342.276764 
L 147.245815 341.262441 
L 162.288726 340.485859 
L 165.04073 340.168479 
L 165.39249 339.968309 
L 165.475257 339.706979 
L 165.558024 337.84964 
L 165.785634 332.283391 
L 166.075318 330.481372 
L 166.44777 329.160917 
L 166.468462 329.169897 
L 166.57192 329.473574 
L 166.840913 331.301153 
L 167.399591 335.186308 
L 167.834118 336.549587 
L 168.351412 337.467256 
L 168.992857 338.156114 
L 169.758452 338.647787 
L 170.751656 339.006341 
L 172.138004 339.251125 
L 174.248564 339.378588 
L 176.276357 339.309652 
L 176.628116 339.150882 
L 176.710884 338.948207 
L 176.772959 338.1195 
L 177.104027 330.892421 
L 177.538554 326.841267 
L 177.662705 323.061891 
L 177.766163 311.786067 
L 177.890314 289.249356 
L 177.952389 291.455984 
L 178.366224 314.74855 
L 179.090436 339.399815 
L 179.421504 341.667417 
L 179.814648 342.922405 
L 180.269866 343.670067 
L 180.766469 344.070413 
L 181.36653 344.255333 
L 182.214892 344.259926 
L 191.422726 343.581484 
L 204.872371 342.966934 
L 232.661406 341.687255 
L 259.084786 340.478883 
L 261.96094 340.16447 
L 262.333392 339.973972 
L 262.416159 339.775936 
L 262.478234 339.014525 
L 262.829994 331.532463 
L 263.264521 329.446686 
L 263.409364 329.124542 
L 263.450747 329.166627 
L 263.595589 329.762837 
L 263.926658 332.295155 
L 264.361185 335.115592 
L 264.795712 336.48881 
L 265.313006 337.410864 
L 265.95445 338.101814 
L 266.720045 338.59416 
L 267.692558 338.946362 
L 269.058214 339.186801 
L 271.00324 339.288886 
L 272.244746 339.179012 
L 272.451663 338.990589 
L 272.513739 338.616411 
L 272.596506 336.031776 
L 272.824115 331.212884 
L 273.320717 325.580538 
L 273.444868 318.362459 
L 273.610402 288.867186 
L 273.713861 294.411314 
L 274.065621 314.171405 
L 274.769141 339.330142 
L 275.079517 341.676302 
L 275.472661 343.037637 
L 275.907187 343.808361 
L 276.383098 344.23513 
L 276.941776 344.442868 
L 277.728062 344.476289 
L 279.46617 344.255465 
L 282.300942 343.975875 
L 287.763567 343.741865 
L 301.937423 343.084072 
L 326.188168 341.993502 
L 347.355839 341.204681 
L 347.542065 316.765302 
L 347.686908 282.455776 
L 347.769675 287.893306 
L 348.100743 305.780417 
L 348.597345 318.723522 
L 349.01118 325.56773 
L 349.383632 328.313931 
L 349.797467 329.899754 
L 350.29407 308.993454 
L 350.314761 308.98158 
L 350.335453 309.038103 
L 350.480295 310.311797 
L 351.142432 316.514875 
L 351.535575 319.315337 
L 351.908027 311.604541 
L 351.970102 311.591457 
L 352.011486 311.645551 
L 352.197712 312.222885 
L 353.066766 315.847001 
L 353.128841 315.613416 
L 353.252991 314.581634 
L 353.294375 314.658367 
L 353.501293 315.994198 
L 354.432422 321.963375 
L 354.887641 323.600173 
L 356.067071 326.771154 
L 357.287885 329.587705 
L 358.094864 330.924859 
L 358.653541 331.487721 
L 358.839767 331.446699 
L 358.922534 331.138311 
L 359.005301 329.209032 
L 359.274294 323.602211 
L 359.46052 318.096614 
L 359.750205 306.293988 
L 359.81228 306.877633 
L 360.039889 312.97716 
L 360.577875 325.947139 
L 361.012402 331.449905 
L 361.426237 334.079283 
L 361.902148 335.701982 
L 362.460825 336.840604 
L 363.122962 337.684591 
L 363.92994 338.344219 
L 365.047295 338.952704 
L 366.86817 339.663027 
L 369.558099 340.467356 
L 372.49633 341.113175 
L 375.807011 341.607253 
L 379.883288 341.981346 
L 385.325222 342.243923 
L 393.457084 342.393635 
L 408.065467 342.408312 
L 443.965673 342.167834 
L 566.771277 341.06775 
L 600.498848 340.578414 
L 612.769062 340.211548 
L 615.624526 339.957805 
L 615.976286 339.773044 
L 616.059053 339.546678 
L 616.14182 337.936589 
L 616.369429 332.20687 
L 616.659114 330.333741 
L 617.155716 328.407454 
L 617.404017 328.163245 
L 617.735085 327.469335 
L 617.983386 326.366377 
L 618.169612 324.400917 
L 618.335146 319.602948 
L 618.521372 304.556144 
L 618.624831 299.553347 
L 618.666214 300.249609 
L 619.78357 333.035203 
L 620.114638 336.25434 
L 620.528473 338.154024 
L 621.004384 339.358964 
L 621.542369 340.152658 
L 622.163122 340.673517 
L 622.928717 341.012555 
L 624.087456 341.252851 
L 627.501597 341.622696 
L 633.522899 342.131337 
L 639.151058 342.355176 
L 647.407071 342.439215 
L 663.381111 342.339021 
L 748.093182 341.464641 
L 748.093182 341.464641 
" clip-path="url(#p0f94201d5b)" style="fill: none; stroke: #1f77b4; stroke-width: 0.8; stroke-linecap: square"/>
   </g>
   <g id="line2d_45">
    <path d="M 85.956818 345.238954 
L 86.287886 345.142698 
L 88.377754 344.897467 
L 97.626972 344.064529 
L 110.311021 343.138115 
L 125.271165 342.276764 
L 147.245815 341.26244 
L 162.288726 340.485859 
L 165.04073 340.168479 
L 165.39249 339.968306 
L 165.475257 339.706962 
L 165.558024 337.84954 
L 165.785634 332.283369 
L 166.075318 330.481364 
L 166.44777 329.160924 
L 166.468462 329.169907 
L 166.57192 329.473598 
L 166.840913 331.301203 
L 167.399591 335.186341 
L 167.834118 336.54961 
L 168.351412 337.467274 
L 168.992857 338.156129 
L 169.758452 338.6478 
L 170.751656 339.006352 
L 172.138004 339.251136 
L 174.248564 339.3786 
L 176.276357 339.309691 
L 176.628116 339.151074 
L 176.710884 338.949014 
L 176.772959 338.123236 
L 177.104027 330.893667 
L 177.538554 326.844389 
L 177.662705 323.070968 
L 177.766163 311.82184 
L 177.890314 289.253181 
L 177.952389 291.443779 
L 178.386916 315.564824 
L 179.090436 339.39761 
L 179.421504 341.666394 
L 179.814648 342.921807 
L 180.269866 343.669686 
L 180.766469 344.070158 
L 181.36653 344.255156 
L 182.214892 344.259797 
L 191.443418 343.580595 
L 204.893062 342.965812 
L 232.661406 341.687197 
L 259.084786 340.478787 
L 261.96094 340.164119 
L 262.333392 339.972261 
L 262.416159 339.769135 
L 262.478234 338.983841 
L 262.829994 331.522983 
L 263.264521 329.439675 
L 263.409364 329.12078 
L 263.450747 329.164246 
L 263.595589 329.760869 
L 263.926658 332.288861 
L 264.361185 335.108854 
L 264.795712 336.48256 
L 265.313006 337.404916 
L 265.95445 338.096105 
L 266.720045 338.588671 
L 267.692558 338.941069 
L 269.058214 339.18155 
L 270.982548 339.282394 
L 272.203362 339.171359 
L 272.41028 338.971169 
L 272.472355 338.536572 
L 272.575814 335.012537 
L 272.803423 330.960024 
L 273.23795 326.419939 
L 273.362101 321.450921 
L 273.46556 305.131498 
L 273.569018 288.781905 
L 273.610402 290.281279 
L 274.127696 318.82825 
L 274.707065 339.186529 
L 275.017442 341.621044 
L 275.410585 343.014079 
L 275.845112 343.799343 
L 276.321023 344.234305 
L 276.8797 344.447069 
L 277.645295 344.484696 
L 279.300636 344.277872 
L 282.156099 343.987988 
L 287.370423 343.760688 
L 301.378746 343.113834 
L 325.939866 342.004541 
L 347.355839 341.20571 
L 347.624832 284.402802 
L 347.748983 291.766776 
L 348.059359 304.535412 
L 348.493886 313.087403 
L 348.928413 318.054474 
L 349.383632 320.786745 
L 349.797467 322.411456 
L 350.087152 309.483844 
L 350.231994 308.288317 
L 350.29407 308.463309 
L 350.687213 310.67526 
L 351.535575 315.482276 
L 351.804568 308.668505 
L 351.908027 308.494323 
L 351.949411 308.523928 
L 352.114945 308.918976 
L 352.508088 310.295032 
L 352.570163 310.142237 
L 352.611547 310.044826 
L 352.65293 310.139561 
L 352.983999 312.072604 
L 353.997895 317.699772 
L 354.722107 320.225539 
L 355.611852 322.614412 
L 355.963612 323.146201 
L 356.025687 322.98002 
L 356.108455 321.537389 
L 356.315372 319.374659 
L 356.377447 319.364222 
L 356.398139 319.391987 
L 356.542982 319.904618 
L 356.915433 322.435273 
L 358.032788 330.244592 
L 358.612158 332.077138 
L 359.294986 333.520385 
L 360.101964 334.71714 
L 361.074477 335.761209 
L 362.315983 336.758808 
L 363.950632 337.776869 
L 365.937041 338.74876 
L 368.171751 339.591521 
L 370.675455 340.29425 
L 373.592993 340.875998 
L 377.131284 341.34579 
L 381.642088 341.70852 
L 387.828925 341.967886 
L 397.367827 342.123789 
L 414.79029 342.155 
L 452.490679 341.962404 
L 537.451051 341.277222 
L 584.379966 340.722516 
L 601.823121 340.324433 
L 606.954678 340.029903 
L 607.637506 339.834906 
L 607.761656 339.630092 
L 607.823732 339.025774 
L 608.27895 330.847068 
L 608.837628 328.449924 
L 609.375614 327.961362 
L 609.830832 327.62504 
L 610.058442 327.705386 
L 610.286051 328.092584 
L 610.617119 329.236156 
L 611.44479 332.250016 
L 611.962084 333.246899 
L 612.479378 333.798402 
L 612.748371 333.842849 
L 612.831138 333.683078 
L 612.893213 332.888509 
L 613.203589 325.635234 
L 613.389815 320.398915 
L 613.555349 306.259178 
L 613.6795 300.086486 
L 613.720884 300.841996 
L 614.85893 333.726238 
L 615.21069 336.326117 
L 615.645217 337.925872 
L 616.14182 338.941048 
L 616.700497 339.593615 
L 617.362634 340.020886 
L 618.252379 340.31226 
L 619.866337 340.562141 
L 627.522288 341.360985 
L 632.94353 341.679216 
L 640.35118 341.873014 
L 652.600703 341.944008 
L 678.858548 341.830239 
L 748.093182 341.271486 
L 748.093182 341.271486 
" clip-path="url(#p0f94201d5b)" style="fill: none; stroke: #ff7f0e; stroke-width: 0.8; stroke-linecap: square"/>
   </g>
   <g id="line2d_46">
    <path d="M 334.257955 362.224 
L 334.257955 270.50475 
" clip-path="url(#p0f94201d5b)" style="fill: none; stroke-dasharray: 3.7,1.6; stroke-dashoffset: 0; stroke: #000000"/>
   </g>
   <g id="patch_11">
    <path d="M 52.85 362.224 
L 52.85 270.50475 
" style="fill: none; stroke: #000000; stroke-width: 0.8; stroke-linejoin: miter; stroke-linecap: square"/>
   </g>
   <g id="patch_12">
    <path d="M 52.85 362.224 
L 781.2 362.224 
" style="fill: none; stroke: #000000; stroke-width: 0.8; stroke-linejoin: miter; stroke-linecap: square"/>
   </g>
   <g id="text_16">
    <!-- Interneurons_L6 -->
    <g transform="translate(368.658437 264.50475)scale(0.12 -0.12)">
     <defs>
      <path id="DejaVuSans-36" d="M 2113 2584 
Q 1688 2584 1439 2293 
Q 1191 2003 1191 1497 
Q 1191 994 1439 701 
Q 1688 409 2113 409 
Q 2538 409 2786 701 
Q 3034 994 3034 1497 
Q 3034 2003 2786 2293 
Q 2538 2584 2113 2584 
z
M 3366 4563 
L 3366 3988 
Q 3128 4100 2886 4159 
Q 2644 4219 2406 4219 
Q 1781 4219 1451 3797 
Q 1122 3375 1075 2522 
Q 1259 2794 1537 2939 
Q 1816 3084 2150 3084 
Q 2853 3084 3261 2657 
Q 3669 2231 3669 1497 
Q 3669 778 3244 343 
Q 2819 -91 2113 -91 
Q 1303 -91 875 529 
Q 447 1150 447 2328 
Q 447 3434 972 4092 
Q 1497 4750 2381 4750 
Q 2619 4750 2861 4703 
Q 3103 4656 3366 4563 
z
" transform="scale(0.015625)"/>
     </defs>
     <use xlink:href="#DejaVuSans-49"/>
     <use xlink:href="#DejaVuSans-6e" x="29.492188"/>
     <use xlink:href="#DejaVuSans-74" x="92.871094"/>
     <use xlink:href="#DejaVuSans-65" x="132.080078"/>
     <use xlink:href="#DejaVuSans-72" x="193.603516"/>
     <use xlink:href="#DejaVuSans-6e" x="232.966797"/>
     <use xlink:href="#DejaVuSans-65" x="296.345703"/>
     <use xlink:href="#DejaVuSans-75" x="357.869141"/>
     <use xlink:href="#DejaVuSans-72" x="421.248047"/>
     <use xlink:href="#DejaVuSans-6f" x="460.111328"/>
     <use xlink:href="#DejaVuSans-6e" x="521.292969"/>
     <use xlink:href="#DejaVuSans-73" x="584.671875"/>
     <use xlink:href="#DejaVuSans-5f" x="636.771484"/>
     <use xlink:href="#DejaVuSans-4c" x="686.771484"/>
     <use xlink:href="#DejaVuSans-36" x="742.484375"/>
    </g>
   </g>
   <g id="legend_3">
    <g id="patch_13">
     <path d="M 645.7875 300.83475 
L 775.6 300.83475 
Q 777.2 300.83475 777.2 299.23475 
L 777.2 276.10475 
Q 777.2 274.50475 775.6 274.50475 
L 645.7875 274.50475 
Q 644.1875 274.50475 644.1875 276.10475 
L 644.1875 299.23475 
Q 644.1875 300.83475 645.7875 300.83475 
z
" style="fill: #ffffff; opacity: 0.8; stroke: #cccccc; stroke-linejoin: miter"/>
    </g>
    <g id="line2d_47">
     <path d="M 647.3875 280.9835 
L 655.3875 280.9835 
L 663.3875 280.9835 
" style="fill: none; stroke: #1f77b4; stroke-width: 0.8; stroke-linecap: square"/>
    </g>
    <g id="text_17">
     <!-- Interneurons_L6 cell None -->
     <g transform="translate(669.7875 283.7835)scale(0.08 -0.08)">
      <use xlink:href="#DejaVuSans-49"/>
      <use xlink:href="#DejaVuSans-6e" x="29.492188"/>
      <use xlink:href="#DejaVuSans-74" x="92.871094"/>
      <use xlink:href="#DejaVuSans-65" x="132.080078"/>
      <use xlink:href="#DejaVuSans-72" x="193.603516"/>
      <use xlink:href="#DejaVuSans-6e" x="232.966797"/>
      <use xlink:href="#DejaVuSans-65" x="296.345703"/>
      <use xlink:href="#DejaVuSans-75" x="357.869141"/>
      <use xlink:href="#DejaVuSans-72" x="421.248047"/>
      <use xlink:href="#DejaVuSans-6f" x="460.111328"/>
      <use xlink:href="#DejaVuSans-6e" x="521.292969"/>
      <use xlink:href="#DejaVuSans-73" x="584.671875"/>
      <use xlink:href="#DejaVuSans-5f" x="636.771484"/>
      <use xlink:href="#DejaVuSans-4c" x="686.771484"/>
      <use xlink:href="#DejaVuSans-36" x="742.484375"/>
      <use xlink:href="#DejaVuSans-20" x="806.107422"/>
      <use xlink:href="#DejaVuSans-63" x="837.894531"/>
      <use xlink:href="#DejaVuSans-65" x="892.875"/>
      <use xlink:href="#DejaVuSans-6c" x="954.398438"/>
      <use xlink:href="#DejaVuSans-6c" x="982.181641"/>
      <use xlink:href="#DejaVuSans-20" x="1009.964844"/>
      <use xlink:href="#DejaVuSans-4e" x="1041.751953"/>
      <use xlink:href="#DejaVuSans-6f" x="1116.556641"/>
      <use xlink:href="#DejaVuSans-6e" x="1177.738281"/>
      <use xlink:href="#DejaVuSans-65" x="1241.117188"/>
     </g>
    </g>
    <g id="line2d_48">
     <path d="M 647.3875 292.9485 
L 655.3875 292.9485 
L 663.3875 292.9485 
" style="fill: none; stroke: #ff7f0e; stroke-width: 0.8; stroke-linecap: square"/>
    </g>
    <g id="text_18">
     <!-- Interneurons_L6 cell None -->
     <g transform="translate(669.7875 295.7485)scale(0.08 -0.08)">
      <use xlink:href="#DejaVuSans-49"/>
      <use xlink:href="#DejaVuSans-6e" x="29.492188"/>
      <use xlink:href="#DejaVuSans-74" x="92.871094"/>
      <use xlink:href="#DejaVuSans-65" x="132.080078"/>
      <use xlink:href="#DejaVuSans-72" x="193.603516"/>
      <use xlink:href="#DejaVuSans-6e" x="232.966797"/>
      <use xlink:href="#DejaVuSans-65" x="296.345703"/>
      <use xlink:href="#DejaVuSans-75" x="357.869141"/>
      <use xlink:href="#DejaVuSans-72" x="421.248047"/>
      <use xlink:href="#DejaVuSans-6f" x="460.111328"/>
      <use xlink:href="#DejaVuSans-6e" x="521.292969"/>
      <use xlink:href="#DejaVuSans-73" x="584.671875"/>
      <use xlink:href="#DejaVuSans-5f" x="636.771484"/>
      <use xlink:href="#DejaVuSans-4c" x="686.771484"/>
      <use xlink:href="#DejaVuSans-36" x="742.484375"/>
      <use xlink:href="#DejaVuSans-20" x="806.107422"/>
      <use xlink:href="#DejaVuSans-63" x="837.894531"/>
      <use xlink:href="#DejaVuSans-65" x="892.875"/>
      <use xlink:href="#DejaVuSans-6c" x="954.398438"/>
      <use xlink:href="#DejaVuSans-6c" x="982.181641"/>
      <use xlink:href="#DejaVuSans-20" x="1009.964844"/>
      <use xlink:href="#DejaVuSans-4e" x="1041.751953"/>
      <use xlink:href="#DejaVuSans-6f" x="1116.556641"/>
      <use xlink:href="#DejaVuSans-6e" x="1177.738281"/>
      <use xlink:href="#DejaVuSans-65" x="1241.117188"/>
     </g>
    </g>
   </g>
  </g>
  <g id="axes_4">
   <g id="patch_14">
    <path d="M 52.85 484.132 
L 781.2 484.132 
L 781.2 392.41275 
L 52.85 392.41275 
z
" style="fill: #ffffff"/>
   </g>
   <g id="matplotlib.axis_7">
    <g id="xtick_28">
     <g id="line2d_49">
      <g>
       <use xlink:href="#m243464214b" x="85.956818" y="484.132" style="stroke: #000000; stroke-width: 0.8"/>
      </g>
     </g>
    </g>
    <g id="xtick_29">
     <g id="line2d_50">
      <g>
       <use xlink:href="#m243464214b" x="168.723864" y="484.132" style="stroke: #000000; stroke-width: 0.8"/>
      </g>
     </g>
    </g>
    <g id="xtick_30">
     <g id="line2d_51">
      <g>
       <use xlink:href="#m243464214b" x="251.490909" y="484.132" style="stroke: #000000; stroke-width: 0.8"/>
      </g>
     </g>
    </g>
    <g id="xtick_31">
     <g id="line2d_52">
      <g>
       <use xlink:href="#m243464214b" x="334.257955" y="484.132" style="stroke: #000000; stroke-width: 0.8"/>
      </g>
     </g>
    </g>
    <g id="xtick_32">
     <g id="line2d_53">
      <g>
       <use xlink:href="#m243464214b" x="417.025" y="484.132" style="stroke: #000000; stroke-width: 0.8"/>
      </g>
     </g>
    </g>
    <g id="xtick_33">
     <g id="line2d_54">
      <g>
       <use xlink:href="#m243464214b" x="499.792045" y="484.132" style="stroke: #000000; stroke-width: 0.8"/>
      </g>
     </g>
    </g>
    <g id="xtick_34">
     <g id="line2d_55">
      <g>
       <use xlink:href="#m243464214b" x="582.559091" y="484.132" style="stroke: #000000; stroke-width: 0.8"/>
      </g>
     </g>
    </g>
    <g id="xtick_35">
     <g id="line2d_56">
      <g>
       <use xlink:href="#m243464214b" x="665.326136" y="484.132" style="stroke: #000000; stroke-width: 0.8"/>
      </g>
     </g>
    </g>
    <g id="xtick_36">
     <g id="line2d_57">
      <g>
       <use xlink:href="#m243464214b" x="748.093182" y="484.132" style="stroke: #000000; stroke-width: 0.8"/>
      </g>
     </g>
    </g>
   </g>
   <g id="matplotlib.axis_8">
    <g id="ytick_7">
     <g id="line2d_58">
      <g>
       <use xlink:href="#m22b8a78b07" x="52.85" y="456.955926" style="stroke: #000000; stroke-width: 0.8"/>
      </g>
     </g>
     <g id="text_19">
      <!-- −50 -->
      <g transform="translate(24.745313 460.755145)scale(0.1 -0.1)">
       <use xlink:href="#DejaVuSans-2212"/>
       <use xlink:href="#DejaVuSans-35" x="83.789062"/>
       <use xlink:href="#DejaVuSans-30" x="147.412109"/>
      </g>
     </g>
    </g>
    <g id="ytick_8">
     <g id="line2d_59">
      <g>
       <use xlink:href="#m22b8a78b07" x="52.85" y="422.985833" style="stroke: #000000; stroke-width: 0.8"/>
      </g>
     </g>
     <g id="text_20">
      <!-- 0 -->
      <g transform="translate(39.4875 426.785052)scale(0.1 -0.1)">
       <use xlink:href="#DejaVuSans-30"/>
      </g>
     </g>
    </g>
    <g id="text_21">
     <!-- mV -->
     <g transform="translate(18.665625 446.563)rotate(-90)scale(0.1 -0.1)">
      <use xlink:href="#DejaVuSans-6d"/>
      <use xlink:href="#DejaVuSans-56" x="97.412109"/>
     </g>
    </g>
   </g>
   <g id="line2d_60">
    <path d="M 85.956818 467.146954 
L 86.143044 466.796759 
L 86.598263 466.537907 
L 87.73631 466.209065 
L 90.343472 465.723154 
L 95.433645 465.020396 
L 103.110288 464.194495 
L 113.207868 463.341622 
L 140.189925 461.197569 
L 142.0108 460.803165 
L 142.755703 460.442559 
L 143.06608 460.057556 
L 143.210922 459.469066 
L 143.293689 457.62636 
L 143.521298 442.038638 
L 143.604065 416.722477 
L 143.686832 402.214865 
L 143.728216 403.818105 
L 144.617962 452.550598 
L 144.886955 459.921916 
L 145.176639 462.153722 
L 145.507707 463.166478 
L 145.880159 463.660948 
L 146.35607 463.912265 
L 147.080281 464.011518 
L 154.446548 464.325561 
L 158.564209 464.474722 
L 163.737149 464.421522 
L 172.738065 464.070509 
L 179.152511 463.859775 
L 179.814648 464.795842 
L 180.414709 465.186232 
L 181.36653 465.515869 
L 182.856337 465.778452 
L 185.028972 465.920946 
L 188.132736 465.887179 
L 192.9953 465.589273 
L 196.05768 465.465561 
L 197.009501 465.560168 
L 199.368362 465.511414 
L 204.830987 465.14448 
L 225.481365 463.644833 
L 240.193207 462.876425 
L 269.368591 461.411301 
L 272.368896 461.047107 
L 274.272538 460.482772 
L 274.665682 460.128007 
L 274.851908 459.665728 
L 274.934675 458.84321 
L 275.038134 453.093919 
L 275.265743 432.401452 
L 275.389893 403.097034 
L 275.431277 404.874302 
L 276.217564 448.532871 
L 276.548632 459.989609 
L 276.817625 462.367722 
L 277.169385 463.618918 
L 277.562528 464.243699 
L 278.059131 464.604041 
L 278.824726 464.851559 
L 280.976669 465.207325 
L 286.563445 466.016769 
L 289.936202 466.21353 
L 294.38493 466.233919 
L 301.585663 466.016137 
L 337.879013 464.684854 
L 338.768759 464.870184 
L 340.693092 464.967699 
L 345.038362 464.939007 
L 348.907722 464.939819 
L 349.652625 465.964893 
L 350.29407 466.341681 
L 351.307966 466.655221 
L 353.915128 467.124867 
L 356.336064 467.186185 
L 359.895047 467.037305 
L 361.115861 467.062783 
L 361.757305 467.35662 
L 362.729818 467.49926 
L 364.674844 467.529359 
L 368.047601 467.339302 
L 374.37928 466.722305 
L 388.656595 465.320521 
L 399.085243 464.550728 
L 411.334766 463.878743 
L 427.205347 463.243589 
L 459.919021 462.228979 
L 477.569094 461.613977 
L 484.10769 461.190065 
L 488.949562 460.619234 
L 489.549624 460.310454 
L 489.797925 459.960648 
L 489.922075 459.409187 
L 490.004842 457.518935 
L 490.253143 439.581617 
L 490.397986 402.49109 
L 490.501445 408.060595 
L 490.977355 436.202783 
L 491.639491 460.368654 
L 491.929176 462.331721 
L 492.280936 463.303733 
L 492.67408 463.766239 
L 493.170682 463.996942 
L 494.019044 464.105705 
L 497.49526 464.379324 
L 504.427 465.240688 
L 508.855037 465.476142 
L 515.021182 465.564546 
L 525.09807 465.460976 
L 547.486555 464.957654 
L 610.927496 463.5106 
L 615.314149 463.530206 
L 615.996977 464.019168 
L 616.845339 464.284787 
L 618.417913 464.514921 
L 621.045767 464.657434 
L 624.128839 464.832135 
L 624.728901 465.200905 
L 625.597955 465.431512 
L 627.232604 465.6098 
L 629.943224 465.665897 
L 634.247111 465.512217 
L 643.434253 464.906691 
L 647.613989 464.726385 
L 649.559014 464.712171 
L 656.366604 464.383479 
L 676.872139 463.37537 
L 697.356983 462.64138 
L 720.552447 461.781025 
L 728.80846 461.313073 
L 732.243293 460.924266 
L 733.629641 460.573356 
L 734.188318 460.22599 
L 734.415928 459.846452 
L 734.540078 459.093428 
L 734.622845 456.15367 
L 734.871146 432.360567 
L 734.995297 402.491331 
L 735.03668 404.274928 
L 735.822967 447.852039 
L 736.154036 459.440387 
L 736.423028 461.903817 
L 736.754097 463.082397 
L 737.126548 463.64713 
L 737.581767 463.923573 
L 738.264595 464.046742 
L 744.120364 464.542631 
L 748.093182 465.00552 
L 748.093182 465.00552 
" clip-path="url(#pd627702b88)" style="fill: none; stroke: #1f77b4; stroke-width: 0.8; stroke-linecap: square"/>
   </g>
   <g id="line2d_61">
    <path d="M 85.956818 467.146954 
L 86.143044 466.796759 
L 86.598263 466.537907 
L 87.73631 466.209065 
L 90.343472 465.723154 
L 95.433645 465.020396 
L 103.110288 464.194495 
L 113.207868 463.341622 
L 140.189925 461.19757 
L 142.0108 460.803167 
L 142.755703 460.442565 
L 143.06608 460.057571 
L 143.210922 459.469127 
L 143.293689 457.62669 
L 143.521298 442.039547 
L 143.604065 416.725771 
L 143.686832 402.214774 
L 143.728216 403.817688 
L 144.617962 452.550269 
L 144.886955 459.921824 
L 145.176639 462.15369 
L 145.507707 463.166465 
L 145.880159 463.660943 
L 146.35607 463.912264 
L 147.080281 464.011519 
L 154.446548 464.325561 
L 158.564209 464.474723 
L 163.737149 464.421523 
L 172.738065 464.070509 
L 179.152511 463.857564 
L 179.814648 464.794075 
L 180.414709 465.184742 
L 181.36653 465.514684 
L 182.856337 465.777557 
L 185.028972 465.920274 
L 188.132736 465.886664 
L 192.9953 465.588882 
L 196.678433 465.41844 
L 199.533896 465.278602 
L 210.893673 464.414287 
L 223.826024 463.561876 
L 239.241386 462.786702 
L 265.913067 461.476601 
L 269.968652 461.052795 
L 271.623993 460.68651 
L 272.265437 460.34495 
L 272.555122 459.929244 
L 272.679273 459.399584 
L 272.76204 457.664371 
L 272.989649 442.30193 
L 273.072416 417.972446 
L 273.155183 402.323333 
L 273.196567 403.803019 
L 274.127696 454.277317 
L 274.396689 460.406198 
L 274.686374 462.344614 
L 275.224359 464.066395 
L 275.638195 464.647689 
L 276.17618 465.00078 
L 277.045234 465.27367 
L 280.024848 465.836382 
L 283.45968 466.343649 
L 286.563445 466.561484 
L 290.474187 466.598463 
L 296.412723 466.408511 
L 338.148006 464.663609 
L 339.741271 464.725474 
L 344.872828 464.647988 
L 348.88703 464.629079 
L 349.694009 465.634079 
L 350.376837 465.987249 
L 351.763185 466.623653 
L 352.404629 466.964242 
L 353.294375 467.411713 
L 353.915128 467.771209 
L 354.887641 468.044542 
L 356.480906 468.244674 
L 358.736308 468.292356 
L 361.240011 468.351151 
L 361.881456 468.561927 
L 363.040195 468.65826 
L 365.274905 468.597499 
L 368.97873 468.255232 
L 376.717449 467.263467 
L 387.270247 465.98425 
L 396.312547 465.122966 
L 406.45151 464.387239 
L 418.804491 463.723046 
L 435.171675 463.079465 
L 483.28002 461.333305 
L 491.598108 460.604379 
L 492.218861 460.279036 
L 492.467162 459.928991 
L 492.591312 459.392024 
L 492.67408 457.585777 
L 492.922381 439.665765 
L 493.067223 402.491015 
L 493.170682 408.02127 
L 493.646592 436.186527 
L 494.308729 460.361641 
L 494.598413 462.324367 
L 494.950173 463.295927 
L 495.343317 463.757899 
L 495.839919 463.987185 
L 496.667589 464.091832 
L 500.185189 464.359391 
L 507.137621 465.212954 
L 511.586349 465.444308 
L 517.81457 465.527714 
L 528.0363 465.415917 
L 551.459374 464.88323 
L 610.244668 463.543364 
L 610.492969 463.742557 
L 611.09303 464.139607 
L 611.962084 464.400602 
L 613.576041 464.624615 
L 616.26597 464.756839 
L 620.011179 464.925136 
L 620.61124 465.278865 
L 621.500986 465.502397 
L 623.19771 465.671421 
L 626.01179 465.710544 
L 630.543286 465.52881 
L 641.489227 464.793901 
L 647.51053 464.497242 
L 649.207254 464.510831 
L 655.063023 464.276305 
L 681.569169 463.106416 
L 726.946202 461.355487 
L 730.732794 460.961641 
L 732.263984 460.608477 
L 732.864045 460.276745 
L 733.133038 459.880109 
L 733.257189 459.24606 
L 733.339956 456.878706 
L 733.588257 436.032188 
L 733.712408 402.395344 
L 733.774483 404.76869 
L 734.436619 442.310334 
L 734.933222 460.117849 
L 735.222906 462.24618 
L 735.553974 463.228073 
L 735.926426 463.709546 
L 736.402337 463.953587 
L 737.167932 464.058017 
L 741.264901 464.328744 
L 747.637963 465.085832 
L 748.093182 465.120155 
L 748.093182 465.120155 
" clip-path="url(#pd627702b88)" style="fill: none; stroke: #ff7f0e; stroke-width: 0.8; stroke-linecap: square"/>
   </g>
   <g id="line2d_62">
    <path d="M 334.257955 484.132 
L 334.257955 392.41275 
" clip-path="url(#pd627702b88)" style="fill: none; stroke-dasharray: 3.7,1.6; stroke-dashoffset: 0; stroke: #000000"/>
   </g>
   <g id="patch_15">
    <path d="M 52.85 484.132 
L 52.85 392.41275 
" style="fill: none; stroke: #000000; stroke-width: 0.8; stroke-linejoin: miter; stroke-linecap: square"/>
   </g>
   <g id="patch_16">
    <path d="M 52.85 484.132 
L 781.2 484.132 
" style="fill: none; stroke: #000000; stroke-width: 0.8; stroke-linejoin: miter; stroke-linecap: square"/>
   </g>
   <g id="text_22">
    <!-- PFC_L5_Pyr -->
    <g transform="translate(382.970312 386.41275)scale(0.12 -0.12)">
     <defs>
      <path id="DejaVuSans-46" d="M 628 4666 
L 3309 4666 
L 3309 4134 
L 1259 4134 
L 1259 2759 
L 3109 2759 
L 3109 2228 
L 1259 2228 
L 1259 0 
L 628 0 
L 628 4666 
z
" transform="scale(0.015625)"/>
     </defs>
     <use xlink:href="#DejaVuSans-50"/>
     <use xlink:href="#DejaVuSans-46" x="60.302734"/>
     <use xlink:href="#DejaVuSans-43" x="117.822266"/>
     <use xlink:href="#DejaVuSans-5f" x="187.646484"/>
     <use xlink:href="#DejaVuSans-4c" x="237.646484"/>
     <use xlink:href="#DejaVuSans-35" x="293.359375"/>
     <use xlink:href="#DejaVuSans-5f" x="356.982422"/>
     <use xlink:href="#DejaVuSans-50" x="406.982422"/>
     <use xlink:href="#DejaVuSans-79" x="467.285156"/>
     <use xlink:href="#DejaVuSans-72" x="526.464844"/>
    </g>
   </g>
   <g id="legend_4">
    <g id="patch_17">
     <path d="M 664.87 422.74275 
L 775.6 422.74275 
Q 777.2 422.74275 777.2 421.14275 
L 777.2 398.01275 
Q 777.2 396.41275 775.6 396.41275 
L 664.87 396.41275 
Q 663.27 396.41275 663.27 398.01275 
L 663.27 421.14275 
Q 663.27 422.74275 664.87 422.74275 
z
" style="fill: #ffffff; opacity: 0.8; stroke: #cccccc; stroke-linejoin: miter"/>
    </g>
    <g id="line2d_63">
     <path d="M 666.47 402.8915 
L 674.47 402.8915 
L 682.47 402.8915 
" style="fill: none; stroke: #1f77b4; stroke-width: 0.8; stroke-linecap: square"/>
    </g>
    <g id="text_23">
     <!-- PFC_L5_Pyr cell None -->
     <g transform="translate(688.87 405.6915)scale(0.08 -0.08)">
      <use xlink:href="#DejaVuSans-50"/>
      <use xlink:href="#DejaVuSans-46" x="60.302734"/>
      <use xlink:href="#DejaVuSans-43" x="117.822266"/>
      <use xlink:href="#DejaVuSans-5f" x="187.646484"/>
      <use xlink:href="#DejaVuSans-4c" x="237.646484"/>
      <use xlink:href="#DejaVuSans-35" x="293.359375"/>
      <use xlink:href="#DejaVuSans-5f" x="356.982422"/>
      <use xlink:href="#DejaVuSans-50" x="406.982422"/>
      <use xlink:href="#DejaVuSans-79" x="467.285156"/>
      <use xlink:href="#DejaVuSans-72" x="526.464844"/>
      <use xlink:href="#DejaVuSans-20" x="567.578125"/>
      <use xlink:href="#DejaVuSans-63" x="599.365234"/>
      <use xlink:href="#DejaVuSans-65" x="654.345703"/>
      <use xlink:href="#DejaVuSans-6c" x="715.869141"/>
      <use xlink:href="#DejaVuSans-6c" x="743.652344"/>
      <use xlink:href="#DejaVuSans-20" x="771.435547"/>
      <use xlink:href="#DejaVuSans-4e" x="803.222656"/>
      <use xlink:href="#DejaVuSans-6f" x="878.027344"/>
      <use xlink:href="#DejaVuSans-6e" x="939.208984"/>
      <use xlink:href="#DejaVuSans-65" x="1002.587891"/>
     </g>
    </g>
    <g id="line2d_64">
     <path d="M 666.47 414.8565 
L 674.47 414.8565 
L 682.47 414.8565 
" style="fill: none; stroke: #ff7f0e; stroke-width: 0.8; stroke-linecap: square"/>
    </g>
    <g id="text_24">
     <!-- PFC_L5_Pyr cell None -->
     <g transform="translate(688.87 417.6565)scale(0.08 -0.08)">
      <use xlink:href="#DejaVuSans-50"/>
      <use xlink:href="#DejaVuSans-46" x="60.302734"/>
      <use xlink:href="#DejaVuSans-43" x="117.822266"/>
      <use xlink:href="#DejaVuSans-5f" x="187.646484"/>
      <use xlink:href="#DejaVuSans-4c" x="237.646484"/>
      <use xlink:href="#DejaVuSans-35" x="293.359375"/>
      <use xlink:href="#DejaVuSans-5f" x="356.982422"/>
      <use xlink:href="#DejaVuSans-50" x="406.982422"/>
      <use xlink:href="#DejaVuSans-79" x="467.285156"/>
      <use xlink:href="#DejaVuSans-72" x="526.464844"/>
      <use xlink:href="#DejaVuSans-20" x="567.578125"/>
      <use xlink:href="#DejaVuSans-63" x="599.365234"/>
      <use xlink:href="#DejaVuSans-65" x="654.345703"/>
      <use xlink:href="#DejaVuSans-6c" x="715.869141"/>
      <use xlink:href="#DejaVuSans-6c" x="743.652344"/>
      <use xlink:href="#DejaVuSans-20" x="771.435547"/>
      <use xlink:href="#DejaVuSans-4e" x="803.222656"/>
      <use xlink:href="#DejaVuSans-6f" x="878.027344"/>
      <use xlink:href="#DejaVuSans-6e" x="939.208984"/>
      <use xlink:href="#DejaVuSans-65" x="1002.587891"/>
     </g>
    </g>
   </g>
  </g>
  <g id="axes_5">
   <g id="patch_18">
    <path d="M 52.85 606.04 
L 781.2 606.04 
L 781.2 514.32075 
L 52.85 514.32075 
z
" style="fill: #ffffff"/>
   </g>
   <g id="matplotlib.axis_9">
    <g id="xtick_37">
     <g id="line2d_65">
      <g>
       <use xlink:href="#m243464214b" x="85.956818" y="606.04" style="stroke: #000000; stroke-width: 0.8"/>
      </g>
     </g>
     <g id="text_25">
      <!-- 0 -->
      <g transform="translate(82.775568 620.638438)scale(0.1 -0.1)">
       <use xlink:href="#DejaVuSans-30"/>
      </g>
     </g>
    </g>
    <g id="xtick_38">
     <g id="line2d_66">
      <g>
       <use xlink:href="#m243464214b" x="168.723864" y="606.04" style="stroke: #000000; stroke-width: 0.8"/>
      </g>
     </g>
     <g id="text_26">
      <!-- 100 -->
      <g transform="translate(159.180114 620.638438)scale(0.1 -0.1)">
       <use xlink:href="#DejaVuSans-31"/>
       <use xlink:href="#DejaVuSans-30" x="63.623047"/>
       <use xlink:href="#DejaVuSans-30" x="127.246094"/>
      </g>
     </g>
    </g>
    <g id="xtick_39">
     <g id="line2d_67">
      <g>
       <use xlink:href="#m243464214b" x="251.490909" y="606.04" style="stroke: #000000; stroke-width: 0.8"/>
      </g>
     </g>
     <g id="text_27">
      <!-- 200 -->
      <g transform="translate(241.947159 620.638438)scale(0.1 -0.1)">
       <defs>
        <path id="DejaVuSans-32" d="M 1228 531 
L 3431 531 
L 3431 0 
L 469 0 
L 469 531 
Q 828 903 1448 1529 
Q 2069 2156 2228 2338 
Q 2531 2678 2651 2914 
Q 2772 3150 2772 3378 
Q 2772 3750 2511 3984 
Q 2250 4219 1831 4219 
Q 1534 4219 1204 4116 
Q 875 4013 500 3803 
L 500 4441 
Q 881 4594 1212 4672 
Q 1544 4750 1819 4750 
Q 2544 4750 2975 4387 
Q 3406 4025 3406 3419 
Q 3406 3131 3298 2873 
Q 3191 2616 2906 2266 
Q 2828 2175 2409 1742 
Q 1991 1309 1228 531 
z
" transform="scale(0.015625)"/>
       </defs>
       <use xlink:href="#DejaVuSans-32"/>
       <use xlink:href="#DejaVuSans-30" x="63.623047"/>
       <use xlink:href="#DejaVuSans-30" x="127.246094"/>
      </g>
     </g>
    </g>
    <g id="xtick_40">
     <g id="line2d_68">
      <g>
       <use xlink:href="#m243464214b" x="334.257955" y="606.04" style="stroke: #000000; stroke-width: 0.8"/>
      </g>
     </g>
     <g id="text_28">
      <!-- 300 -->
      <g transform="translate(324.714205 620.638438)scale(0.1 -0.1)">
       <defs>
        <path id="DejaVuSans-33" d="M 2597 2516 
Q 3050 2419 3304 2112 
Q 3559 1806 3559 1356 
Q 3559 666 3084 287 
Q 2609 -91 1734 -91 
Q 1441 -91 1130 -33 
Q 819 25 488 141 
L 488 750 
Q 750 597 1062 519 
Q 1375 441 1716 441 
Q 2309 441 2620 675 
Q 2931 909 2931 1356 
Q 2931 1769 2642 2001 
Q 2353 2234 1838 2234 
L 1294 2234 
L 1294 2753 
L 1863 2753 
Q 2328 2753 2575 2939 
Q 2822 3125 2822 3475 
Q 2822 3834 2567 4026 
Q 2313 4219 1838 4219 
Q 1578 4219 1281 4162 
Q 984 4106 628 3988 
L 628 4550 
Q 988 4650 1302 4700 
Q 1616 4750 1894 4750 
Q 2613 4750 3031 4423 
Q 3450 4097 3450 3541 
Q 3450 3153 3228 2886 
Q 3006 2619 2597 2516 
z
" transform="scale(0.015625)"/>
       </defs>
       <use xlink:href="#DejaVuSans-33"/>
       <use xlink:href="#DejaVuSans-30" x="63.623047"/>
       <use xlink:href="#DejaVuSans-30" x="127.246094"/>
      </g>
     </g>
    </g>
    <g id="xtick_41">
     <g id="line2d_69">
      <g>
       <use xlink:href="#m243464214b" x="417.025" y="606.04" style="stroke: #000000; stroke-width: 0.8"/>
      </g>
     </g>
     <g id="text_29">
      <!-- 400 -->
      <g transform="translate(407.48125 620.638438)scale(0.1 -0.1)">
       <defs>
        <path id="DejaVuSans-34" d="M 2419 4116 
L 825 1625 
L 2419 1625 
L 2419 4116 
z
M 2253 4666 
L 3047 4666 
L 3047 1625 
L 3713 1625 
L 3713 1100 
L 3047 1100 
L 3047 0 
L 2419 0 
L 2419 1100 
L 313 1100 
L 313 1709 
L 2253 4666 
z
" transform="scale(0.015625)"/>
       </defs>
       <use xlink:href="#DejaVuSans-34"/>
       <use xlink:href="#DejaVuSans-30" x="63.623047"/>
       <use xlink:href="#DejaVuSans-30" x="127.246094"/>
      </g>
     </g>
    </g>
    <g id="xtick_42">
     <g id="line2d_70">
      <g>
       <use xlink:href="#m243464214b" x="499.792045" y="606.04" style="stroke: #000000; stroke-width: 0.8"/>
      </g>
     </g>
     <g id="text_30">
      <!-- 500 -->
      <g transform="translate(490.248295 620.638438)scale(0.1 -0.1)">
       <use xlink:href="#DejaVuSans-35"/>
       <use xlink:href="#DejaVuSans-30" x="63.623047"/>
       <use xlink:href="#DejaVuSans-30" x="127.246094"/>
      </g>
     </g>
    </g>
    <g id="xtick_43">
     <g id="line2d_71">
      <g>
       <use xlink:href="#m243464214b" x="582.559091" y="606.04" style="stroke: #000000; stroke-width: 0.8"/>
      </g>
     </g>
     <g id="text_31">
      <!-- 600 -->
      <g transform="translate(573.015341 620.638438)scale(0.1 -0.1)">
       <use xlink:href="#DejaVuSans-36"/>
       <use xlink:href="#DejaVuSans-30" x="63.623047"/>
       <use xlink:href="#DejaVuSans-30" x="127.246094"/>
      </g>
     </g>
    </g>
    <g id="xtick_44">
     <g id="line2d_72">
      <g>
       <use xlink:href="#m243464214b" x="665.326136" y="606.04" style="stroke: #000000; stroke-width: 0.8"/>
      </g>
     </g>
     <g id="text_32">
      <!-- 700 -->
      <g transform="translate(655.782386 620.638438)scale(0.1 -0.1)">
       <defs>
        <path id="DejaVuSans-37" d="M 525 4666 
L 3525 4666 
L 3525 4397 
L 1831 0 
L 1172 0 
L 2766 4134 
L 525 4134 
L 525 4666 
z
" transform="scale(0.015625)"/>
       </defs>
       <use xlink:href="#DejaVuSans-37"/>
       <use xlink:href="#DejaVuSans-30" x="63.623047"/>
       <use xlink:href="#DejaVuSans-30" x="127.246094"/>
      </g>
     </g>
    </g>
    <g id="xtick_45">
     <g id="line2d_73">
      <g>
       <use xlink:href="#m243464214b" x="748.093182" y="606.04" style="stroke: #000000; stroke-width: 0.8"/>
      </g>
     </g>
     <g id="text_33">
      <!-- 800 -->
      <g transform="translate(738.549432 620.638438)scale(0.1 -0.1)">
       <defs>
        <path id="DejaVuSans-38" d="M 2034 2216 
Q 1584 2216 1326 1975 
Q 1069 1734 1069 1313 
Q 1069 891 1326 650 
Q 1584 409 2034 409 
Q 2484 409 2743 651 
Q 3003 894 3003 1313 
Q 3003 1734 2745 1975 
Q 2488 2216 2034 2216 
z
M 1403 2484 
Q 997 2584 770 2862 
Q 544 3141 544 3541 
Q 544 4100 942 4425 
Q 1341 4750 2034 4750 
Q 2731 4750 3128 4425 
Q 3525 4100 3525 3541 
Q 3525 3141 3298 2862 
Q 3072 2584 2669 2484 
Q 3125 2378 3379 2068 
Q 3634 1759 3634 1313 
Q 3634 634 3220 271 
Q 2806 -91 2034 -91 
Q 1263 -91 848 271 
Q 434 634 434 1313 
Q 434 1759 690 2068 
Q 947 2378 1403 2484 
z
M 1172 3481 
Q 1172 3119 1398 2916 
Q 1625 2713 2034 2713 
Q 2441 2713 2670 2916 
Q 2900 3119 2900 3481 
Q 2900 3844 2670 4047 
Q 2441 4250 2034 4250 
Q 1625 4250 1398 4047 
Q 1172 3844 1172 3481 
z
" transform="scale(0.015625)"/>
       </defs>
       <use xlink:href="#DejaVuSans-38"/>
       <use xlink:href="#DejaVuSans-30" x="63.623047"/>
       <use xlink:href="#DejaVuSans-30" x="127.246094"/>
      </g>
     </g>
    </g>
    <g id="text_34">
     <!-- Time (ms) -->
     <g transform="translate(391.825781 634.316563)scale(0.1 -0.1)">
      <defs>
       <path id="DejaVuSans-54" d="M -19 4666 
L 3928 4666 
L 3928 4134 
L 2272 4134 
L 2272 0 
L 1638 0 
L 1638 4134 
L -19 4134 
L -19 4666 
z
" transform="scale(0.015625)"/>
       <path id="DejaVuSans-69" d="M 603 3500 
L 1178 3500 
L 1178 0 
L 603 0 
L 603 3500 
z
M 603 4863 
L 1178 4863 
L 1178 4134 
L 603 4134 
L 603 4863 
z
" transform="scale(0.015625)"/>
       <path id="DejaVuSans-28" d="M 1984 4856 
Q 1566 4138 1362 3434 
Q 1159 2731 1159 2009 
Q 1159 1288 1364 580 
Q 1569 -128 1984 -844 
L 1484 -844 
Q 1016 -109 783 600 
Q 550 1309 550 2009 
Q 550 2706 781 3412 
Q 1013 4119 1484 4856 
L 1984 4856 
z
" transform="scale(0.015625)"/>
       <path id="DejaVuSans-29" d="M 513 4856 
L 1013 4856 
Q 1481 4119 1714 3412 
Q 1947 2706 1947 2009 
Q 1947 1309 1714 600 
Q 1481 -109 1013 -844 
L 513 -844 
Q 928 -128 1133 580 
Q 1338 1288 1338 2009 
Q 1338 2731 1133 3434 
Q 928 4138 513 4856 
z
" transform="scale(0.015625)"/>
      </defs>
      <use xlink:href="#DejaVuSans-54"/>
      <use xlink:href="#DejaVuSans-69" x="57.958984"/>
      <use xlink:href="#DejaVuSans-6d" x="85.742188"/>
      <use xlink:href="#DejaVuSans-65" x="183.154297"/>
      <use xlink:href="#DejaVuSans-20" x="244.677734"/>
      <use xlink:href="#DejaVuSans-28" x="276.464844"/>
      <use xlink:href="#DejaVuSans-6d" x="315.478516"/>
      <use xlink:href="#DejaVuSans-73" x="412.890625"/>
      <use xlink:href="#DejaVuSans-29" x="464.990234"/>
     </g>
    </g>
   </g>
   <g id="matplotlib.axis_10">
    <g id="ytick_9">
     <g id="line2d_74">
      <g>
       <use xlink:href="#m22b8a78b07" x="52.85" y="578.863926" style="stroke: #000000; stroke-width: 0.8"/>
      </g>
     </g>
     <g id="text_35">
      <!-- −50 -->
      <g transform="translate(24.745313 582.663145)scale(0.1 -0.1)">
       <use xlink:href="#DejaVuSans-2212"/>
       <use xlink:href="#DejaVuSans-35" x="83.789062"/>
       <use xlink:href="#DejaVuSans-30" x="147.412109"/>
      </g>
     </g>
    </g>
    <g id="ytick_10">
     <g id="line2d_75">
      <g>
       <use xlink:href="#m22b8a78b07" x="52.85" y="544.893833" style="stroke: #000000; stroke-width: 0.8"/>
      </g>
     </g>
     <g id="text_36">
      <!-- 0 -->
      <g transform="translate(39.4875 548.693052)scale(0.1 -0.1)">
       <use xlink:href="#DejaVuSans-30"/>
      </g>
     </g>
    </g>
    <g id="text_37">
     <!-- mV -->
     <g transform="translate(18.665625 568.471)rotate(-90)scale(0.1 -0.1)">
      <use xlink:href="#DejaVuSans-6d"/>
      <use xlink:href="#DejaVuSans-56" x="97.412109"/>
     </g>
    </g>
   </g>
   <g id="line2d_76">
    <path d="M 85.956818 589.054954 
L 86.122352 588.549235 
L 86.556879 588.075314 
L 87.488009 587.434691 
L 89.122658 586.604808 
L 91.481518 585.66619 
L 94.543899 584.695896 
L 98.413259 583.713298 
L 103.524124 582.658968 
L 112.29743 580.886056 
L 113.166484 580.489591 
L 113.435477 580.165877 
L 113.559628 579.646202 
L 113.642395 577.78187 
L 113.93208 561.714316 
L 114.138997 532.164127 
L 114.242456 534.399707 
L 115.132202 562.617633 
L 115.58742 569.448124 
L 116.125406 574.393689 
L 116.6427 577.248903 
L 117.201378 579.110114 
L 117.863514 580.532279 
L 118.670493 581.730634 
L 119.601622 582.720408 
L 120.677594 583.538804 
L 121.898408 584.187696 
L 123.305447 584.682607 
L 124.960788 585.02369 
L 126.947197 585.198907 
L 129.471592 585.186734 
L 132.9685 584.929761 
L 139.176028 584.212623 
L 156.412266 582.185867 
L 168.144494 580.924576 
L 170.317129 580.488313 
L 170.979266 580.173382 
L 171.206875 579.857671 
L 171.310334 579.360708 
L 171.393101 577.403435 
L 171.703477 559.077862 
L 171.889703 533.029151 
L 171.951778 533.831415 
L 172.262155 545.43135 
L 172.779449 560.444175 
L 173.234668 568.044404 
L 173.772653 573.380785 
L 174.289947 576.576179 
L 174.827933 578.61312 
L 175.448686 580.127796 
L 176.214281 581.416153 
L 177.145411 582.551476 
L 178.221382 583.510305 
L 180.373325 585.00128 
L 181.614831 585.520726 
L 183.12533 585.905323 
L 184.946205 586.133478 
L 187.24299 586.187669 
L 190.367446 586.023801 
L 195.540386 585.499238 
L 195.830071 585.568388 
L 196.595666 585.946125 
L 197.609562 586.142555 
L 199.306287 586.223782 
L 201.851374 586.106629 
L 205.927651 585.670572 
L 224.157092 583.510362 
L 233.40631 582.748905 
L 245.262689 582.010497 
L 266.513128 580.726457 
L 268.871989 580.366355 
L 269.575509 580.078946 
L 269.82381 579.754351 
L 269.927268 579.252989 
L 270.010036 577.291653 
L 270.320412 559.497773 
L 270.52733 533.474608 
L 270.589405 534.677259 
L 271.727452 566.265869 
L 272.244746 572.022636 
L 272.782732 575.811525 
L 273.320717 578.119102 
L 273.920778 579.755178 
L 274.665682 581.128963 
L 276.17618 583.268842 
L 276.941776 583.925655 
L 278.472966 584.923121 
L 279.859314 585.54352 
L 281.411196 585.991369 
L 283.252763 586.285329 
L 285.528857 586.41496 
L 288.570545 586.352129 
L 293.329651 586.005905 
L 315.200842 584.19994 
L 327.119297 583.546068 
L 337.73417 583.159512 
L 338.851526 583.881163 
L 339.948189 584.203002 
L 341.624222 584.449635 
L 343.983082 584.558575 
L 347.397223 584.475222 
L 349.052564 584.497714 
L 349.880234 584.806763 
L 351.142432 584.991525 
L 352.073561 585.179499 
L 353.273683 585.348128 
L 355.342859 585.395023 
L 358.467315 585.226848 
L 364.198933 584.657116 
L 376.365689 583.449124 
L 385.697673 582.774115 
L 396.995375 582.190897 
L 413.983311 581.563133 
L 431.012631 580.881028 
L 435.047524 580.522867 
L 436.28903 580.229346 
L 436.661482 579.949722 
L 436.806324 579.583561 
L 436.889091 578.679735 
L 437.013241 572.550696 
L 437.282234 553.234559 
L 437.447768 533.472367 
L 437.46846 533.667257 
L 437.613303 538.153734 
L 438.254747 558.874626 
L 438.730658 567.351515 
L 439.268643 572.891375 
L 439.806629 576.349692 
L 440.344615 578.458903 
L 440.965368 580.019478 
L 441.730963 581.335009 
L 442.682784 582.520816 
L 443.779447 583.52992 
L 445.020953 584.365969 
L 446.407301 585.028937 
L 448.000567 585.540049 
L 449.883517 585.902596 
L 452.180303 586.109362 
L 455.180608 586.144339 
L 459.650028 585.953185 
L 473.327283 585.023013 
L 485.763031 584.343646 
L 486.880386 584.398684 
L 487.832207 584.670593 
L 489.50824 584.882846 
L 492.09471 584.974174 
L 496.067528 584.8707 
L 504.944294 584.354457 
L 518.021487 583.672653 
L 531.533207 583.208225 
L 550.342018 582.802862 
L 584.5455 582.325048 
L 615.479683 582.048997 
L 616.659114 582.346321 
L 618.666214 582.58349 
L 621.914821 582.726469 
L 627.004994 582.707217 
L 637.268108 582.400264 
L 647.138078 582.163918 
L 648.110591 582.635235 
L 649.372788 582.944575 
L 651.338506 583.18329 
L 654.193969 583.29158 
L 658.477163 583.21111 
L 666.89871 582.784649 
L 687.34217 581.750083 
L 703.440361 580.912783 
L 706.668276 580.545259 
L 707.620097 580.257547 
L 707.930473 579.958679 
L 708.054624 579.532244 
L 708.137391 578.125482 
L 708.427075 563.961766 
L 708.551226 543.43318 
L 708.675376 533.267058 
L 708.696068 533.500401 
L 708.861602 538.909341 
L 709.461663 558.433443 
L 709.937574 567.151405 
L 710.454868 572.63961 
L 710.992854 576.215904 
L 711.530839 578.371053 
L 712.130901 579.898478 
L 712.875804 581.185204 
L 713.806933 582.341478 
L 714.882905 583.325033 
L 716.124411 584.155622 
L 717.53145 584.824934 
L 719.145408 585.340946 
L 721.04905 585.708426 
L 723.366527 585.921295 
L 726.408216 585.964795 
L 728.270474 585.826194 
L 730.525876 585.70142 
L 739.402642 585.191048 
L 748.093182 584.684982 
L 748.093182 584.684982 
" clip-path="url(#p2f2d821ffa)" style="fill: none; stroke: #1f77b4; stroke-width: 0.8; stroke-linecap: square"/>
   </g>
   <g id="line2d_77">
    <path d="M 85.956818 589.054954 
L 86.122352 588.549235 
L 86.556879 588.075314 
L 87.488009 587.434691 
L 89.122658 586.604808 
L 91.481518 585.66619 
L 94.543899 584.695896 
L 98.413259 583.713298 
L 103.524124 582.658968 
L 112.29743 580.886055 
L 113.166484 580.48959 
L 113.435477 580.165874 
L 113.559628 579.646192 
L 113.642395 577.781826 
L 113.93208 561.714193 
L 114.138997 532.164126 
L 114.242456 534.399747 
L 115.132202 562.617655 
L 115.58742 569.448137 
L 116.125406 574.393696 
L 116.6427 577.248907 
L 117.201378 579.110116 
L 117.863514 580.53228 
L 118.670493 581.730635 
L 119.601622 582.720409 
L 120.677594 583.538804 
L 121.898408 584.187696 
L 123.305447 584.682607 
L 124.960788 585.02369 
L 126.947197 585.198907 
L 129.471592 585.186734 
L 132.9685 584.92976 
L 139.176028 584.212623 
L 156.92956 582.121703 
L 167.916885 580.94071 
L 170.172287 580.496976 
L 170.855115 580.179967 
L 171.082724 579.877764 
L 171.186183 579.434001 
L 171.26895 577.723806 
L 171.558635 562.49855 
L 171.786244 533.024988 
L 171.889703 535.485695 
L 172.738065 562.001005 
L 173.193284 568.939019 
L 173.751962 574.093444 
L 174.269256 577.009678 
L 174.827933 578.94581 
L 175.469378 580.391902 
L 176.276357 581.661948 
L 177.228178 582.752467 
L 178.324841 583.671595 
L 180.621626 585.167766 
L 181.925207 585.647137 
L 183.518473 585.98942 
L 185.463499 586.170637 
L 187.94651 586.167479 
L 191.443418 585.923859 
L 196.036989 585.606168 
L 196.885351 585.793455 
L 198.416541 585.863869 
L 201.044395 585.745064 
L 205.555199 585.290183 
L 222.212067 583.474701 
L 231.957886 582.714133 
L 244.559169 581.969667 
L 265.292314 580.768777 
L 267.982243 580.398401 
L 268.789222 580.107341 
L 269.058214 579.807354 
L 269.182365 579.285775 
L 269.265132 577.438672 
L 269.575509 560.005777 
L 269.782426 533.466128 
L 269.844501 534.576708 
L 271.044624 567.068498 
L 271.561918 572.521071 
L 272.099903 576.11405 
L 272.637889 578.307133 
L 273.258642 579.922856 
L 274.003545 581.24662 
L 275.265743 582.944324 
L 275.969263 583.651798 
L 277.334919 584.664426 
L 278.6385 585.345155 
L 280.107615 585.857099 
L 281.825031 586.212302 
L 283.914899 586.407039 
L 286.604828 586.421875 
L 290.494879 586.201192 
L 298.999193 585.432676 
L 310.524504 584.478193 
L 321.739439 583.784108 
L 335.209776 583.18261 
L 337.858321 583.190316 
L 338.727375 583.565503 
L 339.989572 583.820649 
L 342.07944 583.999513 
L 345.183205 584.026362 
L 349.135331 584.062818 
L 349.94231 584.361785 
L 352.756389 584.941382 
L 353.418526 585.13466 
L 354.556572 585.344454 
L 356.418831 585.444605 
L 359.150143 585.355562 
L 361.488312 585.314563 
L 362.771202 585.379111 
L 365.378364 585.259374 
L 370.261619 584.781883 
L 384.24925 583.35162 
L 393.560543 582.672419 
L 405.023778 582.071333 
L 436.971858 580.53564 
L 438.234055 580.235824 
L 438.606507 579.953551 
L 438.751349 579.580439 
L 438.834116 578.640788 
L 438.958267 572.428073 
L 439.22726 552.785598 
L 439.392794 533.456643 
L 439.413486 533.676446 
L 439.57902 539.023733 
L 440.179081 558.438726 
L 440.654991 567.111878 
L 441.172286 572.575117 
L 441.710271 576.161802 
L 442.248257 578.342669 
L 442.86901 579.943913 
L 443.613913 581.251439 
L 444.545043 582.436926 
L 445.621014 583.450662 
L 446.841828 584.295315 
L 448.207484 584.969639 
L 449.780058 585.494163 
L 451.621625 585.868125 
L 453.877027 586.089888 
L 456.794565 586.141204 
L 461.07776 585.973415 
L 471.237415 585.277856 
L 484.004232 584.50955 
L 486.901078 584.471497 
L 488.142584 584.612493 
L 490.853205 584.659108 
L 492.260244 584.535848 
L 495.839919 584.411844 
L 509.662016 583.824192 
L 525.118761 583.311097 
L 545.334612 582.882646 
L 581.358969 582.376939 
L 620.073254 582.002949 
L 621.252685 582.302642 
L 623.239094 582.54159 
L 626.446317 582.688753 
L 631.474415 582.676567 
L 641.344385 582.387174 
L 647.324304 582.289519 
L 648.56581 582.519035 
L 650.862595 582.683011 
L 654.731955 582.718269 
L 661.498161 582.528219 
L 693.239322 581.215204 
L 700.129679 580.76605 
L 702.343697 580.434178 
L 702.985142 580.151635 
L 703.19206 579.860732 
L 703.295518 579.346635 
L 703.378286 577.331409 
L 703.688662 559.661498 
L 703.89558 533.299997 
L 703.957655 534.504412 
L 705.095702 566.288266 
L 705.612996 572.097074 
L 706.150982 575.885056 
L 706.688967 578.164468 
L 707.289028 579.762098 
L 708.01324 581.058204 
L 708.923678 582.22642 
L 709.999649 583.241098 
L 711.220463 584.084418 
L 712.606811 584.769224 
L 714.200077 585.302583 
L 716.062335 585.685234 
L 718.338429 585.916812 
L 721.276659 585.980685 
L 725.580545 585.831801 
L 731.353547 585.416559 
L 732.574361 585.277553 
L 739.60956 584.878432 
L 748.093182 584.452389 
L 748.093182 584.452389 
" clip-path="url(#p2f2d821ffa)" style="fill: none; stroke: #ff7f0e; stroke-width: 0.8; stroke-linecap: square"/>
   </g>
   <g id="line2d_78">
    <path d="M 334.257955 606.04 
L 334.257955 514.32075 
" clip-path="url(#p2f2d821ffa)" style="fill: none; stroke-dasharray: 3.7,1.6; stroke-dashoffset: 0; stroke: #000000"/>
   </g>
   <g id="patch_19">
    <path d="M 52.85 606.04 
L 52.85 514.32075 
" style="fill: none; stroke: #000000; stroke-width: 0.8; stroke-linejoin: miter; stroke-linecap: square"/>
   </g>
   <g id="patch_20">
    <path d="M 52.85 606.04 
L 781.2 606.04 
" style="fill: none; stroke: #000000; stroke-width: 0.8; stroke-linejoin: miter; stroke-linecap: square"/>
   </g>
   <g id="text_38">
    <!-- PFC_L6_Pyr -->
    <g transform="translate(382.970312 508.32075)scale(0.12 -0.12)">
     <use xlink:href="#DejaVuSans-50"/>
     <use xlink:href="#DejaVuSans-46" x="60.302734"/>
     <use xlink:href="#DejaVuSans-43" x="117.822266"/>
     <use xlink:href="#DejaVuSans-5f" x="187.646484"/>
     <use xlink:href="#DejaVuSans-4c" x="237.646484"/>
     <use xlink:href="#DejaVuSans-36" x="293.359375"/>
     <use xlink:href="#DejaVuSans-5f" x="356.982422"/>
     <use xlink:href="#DejaVuSans-50" x="406.982422"/>
     <use xlink:href="#DejaVuSans-79" x="467.285156"/>
     <use xlink:href="#DejaVuSans-72" x="526.464844"/>
    </g>
   </g>
   <g id="legend_5">
    <g id="patch_21">
     <path d="M 664.87 544.65075 
L 775.6 544.65075 
Q 777.2 544.65075 777.2 543.05075 
L 777.2 519.92075 
Q 777.2 518.32075 775.6 518.32075 
L 664.87 518.32075 
Q 663.27 518.32075 663.27 519.92075 
L 663.27 543.05075 
Q 663.27 544.65075 664.87 544.65075 
z
" style="fill: #ffffff; opacity: 0.8; stroke: #cccccc; stroke-linejoin: miter"/>
    </g>
    <g id="line2d_79">
     <path d="M 666.47 524.7995 
L 674.47 524.7995 
L 682.47 524.7995 
" style="fill: none; stroke: #1f77b4; stroke-width: 0.8; stroke-linecap: square"/>
    </g>
    <g id="text_39">
     <!-- PFC_L6_Pyr cell None -->
     <g transform="translate(688.87 527.5995)scale(0.08 -0.08)">
      <use xlink:href="#DejaVuSans-50"/>
      <use xlink:href="#DejaVuSans-46" x="60.302734"/>
      <use xlink:href="#DejaVuSans-43" x="117.822266"/>
      <use xlink:href="#DejaVuSans-5f" x="187.646484"/>
      <use xlink:href="#DejaVuSans-4c" x="237.646484"/>
      <use xlink:href="#DejaVuSans-36" x="293.359375"/>
      <use xlink:href="#DejaVuSans-5f" x="356.982422"/>
      <use xlink:href="#DejaVuSans-50" x="406.982422"/>
      <use xlink:href="#DejaVuSans-79" x="467.285156"/>
      <use xlink:href="#DejaVuSans-72" x="526.464844"/>
      <use xlink:href="#DejaVuSans-20" x="567.578125"/>
      <use xlink:href="#DejaVuSans-63" x="599.365234"/>
      <use xlink:href="#DejaVuSans-65" x="654.345703"/>
      <use xlink:href="#DejaVuSans-6c" x="715.869141"/>
      <use xlink:href="#DejaVuSans-6c" x="743.652344"/>
      <use xlink:href="#DejaVuSans-20" x="771.435547"/>
      <use xlink:href="#DejaVuSans-4e" x="803.222656"/>
      <use xlink:href="#DejaVuSans-6f" x="878.027344"/>
      <use xlink:href="#DejaVuSans-6e" x="939.208984"/>
      <use xlink:href="#DejaVuSans-65" x="1002.587891"/>
     </g>
    </g>
    <g id="line2d_80">
     <path d="M 666.47 536.7645 
L 674.47 536.7645 
L 682.47 536.7645 
" style="fill: none; stroke: #ff7f0e; stroke-width: 0.8; stroke-linecap: square"/>
    </g>
    <g id="text_40">
     <!-- PFC_L6_Pyr cell None -->
     <g transform="translate(688.87 539.5645)scale(0.08 -0.08)">
      <use xlink:href="#DejaVuSans-50"/>
      <use xlink:href="#DejaVuSans-46" x="60.302734"/>
      <use xlink:href="#DejaVuSans-43" x="117.822266"/>
      <use xlink:href="#DejaVuSans-5f" x="187.646484"/>
      <use xlink:href="#DejaVuSans-4c" x="237.646484"/>
      <use xlink:href="#DejaVuSans-36" x="293.359375"/>
      <use xlink:href="#DejaVuSans-5f" x="356.982422"/>
      <use xlink:href="#DejaVuSans-50" x="406.982422"/>
      <use xlink:href="#DejaVuSans-79" x="467.285156"/>
      <use xlink:href="#DejaVuSans-72" x="526.464844"/>
      <use xlink:href="#DejaVuSans-20" x="567.578125"/>
      <use xlink:href="#DejaVuSans-63" x="599.365234"/>
      <use xlink:href="#DejaVuSans-65" x="654.345703"/>
      <use xlink:href="#DejaVuSans-6c" x="715.869141"/>
      <use xlink:href="#DejaVuSans-6c" x="743.652344"/>
      <use xlink:href="#DejaVuSans-20" x="771.435547"/>
      <use xlink:href="#DejaVuSans-4e" x="803.222656"/>
      <use xlink:href="#DejaVuSans-6f" x="878.027344"/>
      <use xlink:href="#DejaVuSans-6e" x="939.208984"/>
      <use xlink:href="#DejaVuSans-65" x="1002.587891"/>
     </g>
    </g>
   </g>
  </g>
 </g>
 <defs>
  <clipPath id="p87a9acc7fa">
   <rect x="52.85" y="26.68875" width="728.35" height="91.71925"/>
  </clipPath>
  <clipPath id="p632951adaa">
   <rect x="52.85" y="148.59675" width="728.35" height="91.71925"/>
  </clipPath>
  <clipPath id="p0f94201d5b">
   <rect x="52.85" y="270.50475" width="728.35" height="91.71925"/>
  </clipPath>
  <clipPath id="pd627702b88">
   <rect x="52.85" y="392.41275" width="728.35" height="91.71925"/>
  </clipPath>
  <clipPath id="p2f2d821ffa">
   <rect x="52.85" y="514.32075" width="728.35" height="91.71925"/>
  </clipPath>
 </defs>
</svg>
